<svg id="svg" version="1.1" xmlns="http://www.w3.org/2000/svg" xmlns:xlink="http://www.w3.org/1999/xlink" width="400" height="171.2" viewBox="0, 0, 400,171.2"><g id="svgg"><path id="path0" d="M48.525 0.250 C 46.922 0.499,44.646 1.030,44.521 1.185 C 44.473 1.243,43.896 1.478,43.238 1.706 C 42.076 2.109,39.574 3.314,39.389 3.560 C 39.291 3.690,38.730 4.027,37.971 4.410 C 37.712 4.541,37.500 4.718,37.500 4.803 C 37.500 4.888,37.267 5.078,36.981 5.225 C 36.308 5.573,32.971 8.911,32.622 9.584 C 32.475 9.869,32.285 10.103,32.200 10.103 C 32.061 10.103,31.841 10.457,31.270 11.600 C 31.165 11.811,31.028 11.984,30.966 11.985 C 30.804 11.987,29.226 15.186,28.939 16.096 C 28.805 16.520,28.634 16.910,28.558 16.963 C 28.402 17.073,27.572 20.610,27.570 21.176 C 27.569 21.380,27.497 21.572,27.410 21.604 C 26.895 21.789,26.841 31.118,27.352 31.495 C 27.425 31.549,27.634 32.055,27.817 32.620 C 28.000 33.185,28.366 34.081,28.630 34.610 C 28.894 35.140,29.110 35.617,29.110 35.670 C 29.110 35.826,30.927 39.518,31.697 40.925 C 32.083 41.631,32.580 42.567,32.801 43.005 C 33.023 43.443,33.265 43.829,33.340 43.862 C 33.415 43.894,33.690 44.364,33.952 44.906 C 34.214 45.447,34.498 45.890,34.583 45.890 C 34.668 45.890,34.790 46.064,34.855 46.276 C 34.919 46.488,35.271 47.103,35.637 47.644 C 36.002 48.184,36.301 48.690,36.301 48.767 C 36.301 48.845,36.438 49.057,36.606 49.240 C 36.773 49.423,37.134 49.957,37.408 50.428 C 37.682 50.899,38.010 51.389,38.137 51.516 C 38.264 51.644,38.517 52.041,38.700 52.399 C 38.882 52.758,39.095 53.077,39.171 53.109 C 39.248 53.141,39.522 53.533,39.781 53.978 C 40.039 54.424,40.441 54.994,40.673 55.245 C 40.906 55.496,41.096 55.797,41.096 55.915 C 41.096 56.032,41.287 56.310,41.521 56.532 C 41.755 56.753,41.947 57.005,41.949 57.090 C 41.951 57.176,42.251 57.638,42.616 58.118 C 42.980 58.597,43.376 59.182,43.495 59.418 C 43.614 59.653,43.818 59.961,43.947 60.103 C 44.270 60.455,45.273 61.910,45.836 62.842 C 46.092 63.266,46.402 63.675,46.524 63.750 C 46.646 63.825,46.747 63.962,46.747 64.054 C 46.747 64.212,48.388 66.741,48.846 67.289 C 48.961 67.427,49.193 67.797,49.361 68.110 C 49.529 68.423,49.895 68.996,50.176 69.382 C 50.456 69.769,50.685 70.171,50.685 70.275 C 50.685 70.631,52.139 72.072,52.612 72.185 C 53.616 72.425,55.822 71.169,55.822 70.357 C 55.822 70.284,56.015 70.015,56.250 69.761 C 56.485 69.507,56.678 69.210,56.678 69.100 C 56.678 68.990,56.815 68.751,56.983 68.568 C 57.150 68.386,57.511 67.851,57.785 67.380 C 58.058 66.909,58.388 66.418,58.517 66.289 C 58.646 66.159,58.910 65.716,59.103 65.304 C 59.297 64.892,59.518 64.555,59.595 64.555 C 59.722 64.555,59.948 64.184,60.510 63.058 C 60.616 62.847,60.758 62.673,60.827 62.673 C 60.896 62.672,61.105 62.371,61.292 62.004 C 61.479 61.637,61.736 61.233,61.862 61.105 C 61.988 60.978,62.279 60.532,62.510 60.114 C 62.740 59.697,63.101 59.165,63.313 58.933 C 63.525 58.701,63.699 58.422,63.699 58.312 C 63.699 58.202,63.833 57.963,63.998 57.781 C 64.435 57.297,65.240 56.029,65.240 55.826 C 65.240 55.729,65.305 55.651,65.384 55.651 C 65.463 55.651,65.739 55.285,65.997 54.837 C 66.681 53.651,67.593 52.192,67.897 51.798 C 68.427 51.111,69.828 48.840,69.941 48.483 C 70.005 48.281,70.121 48.116,70.199 48.116 C 70.277 48.116,70.551 47.712,70.809 47.217 C 71.066 46.723,71.342 46.277,71.420 46.226 C 71.499 46.176,71.750 45.790,71.977 45.370 C 72.498 44.406,73.573 42.606,73.762 42.380 C 73.841 42.286,74.132 41.785,74.410 41.267 C 74.687 40.749,74.979 40.248,75.058 40.154 C 75.280 39.891,76.303 38.037,76.807 36.986 C 77.056 36.468,77.312 36.006,77.376 35.959 C 77.523 35.851,77.996 34.714,78.267 33.818 C 78.381 33.442,78.531 33.095,78.600 33.048 C 78.815 32.902,79.282 30.325,79.487 28.153 C 79.756 25.303,79.173 19.128,78.591 18.664 C 78.532 18.617,78.277 17.911,78.025 17.094 C 77.773 16.278,77.505 15.584,77.430 15.553 C 77.354 15.522,77.074 14.976,76.806 14.341 C 76.538 13.705,76.269 13.185,76.209 13.185 C 76.148 13.185,75.884 12.761,75.622 12.243 C 75.360 11.725,75.091 11.301,75.024 11.301 C 74.957 11.301,74.760 11.051,74.585 10.745 C 74.189 10.052,74.091 9.939,71.811 7.566 C 70.786 6.500,69.679 5.464,69.349 5.263 C 69.020 5.063,68.688 4.798,68.612 4.674 C 68.537 4.551,68.151 4.286,67.756 4.085 C 67.361 3.885,66.999 3.666,66.952 3.599 C 66.772 3.343,63.819 1.900,62.882 1.610 C 62.342 1.442,61.862 1.250,61.815 1.182 C 61.190 0.286,52.304 -0.337,48.525 0.250 M57.192 7.265 C 70.570 9.692,76.907 25.761,68.892 36.934 L 68.006 38.169 68.494 39.333 C 69.799 42.446,70.195 47.053,69.240 48.007 L 68.789 48.459 65.354 48.459 L 61.919 48.459 61.439 47.999 C 60.964 47.544,60.959 47.516,60.959 45.440 L 60.959 43.340 60.045 43.655 C 59.542 43.828,58.386 44.142,57.476 44.352 L 55.822 44.734 55.822 46.070 C 55.822 47.257,55.773 47.464,55.379 47.932 L 54.935 48.459 51.432 48.459 L 47.929 48.459 47.517 48.014 C 47.011 47.469,46.837 46.432,46.990 44.881 L 47.104 43.722 45.341 42.863 C 31.669 36.204,30.999 17.115,44.168 9.424 C 47.780 7.314,52.839 6.476,57.192 7.265 M49.779 10.188 C 48.096 10.615,46.404 11.249,46.404 11.453 C 46.404 11.514,47.078 12.281,47.902 13.158 L 49.401 14.752 50.171 14.473 C 52.046 13.795,55.127 13.801,57.066 14.486 L 57.791 14.742 59.282 13.150 C 61.060 11.253,61.022 11.414,59.803 10.955 C 56.505 9.714,52.780 9.429,49.779 10.188 M50.856 17.188 C 45.305 19.121,42.888 25.101,45.597 30.200 C 46.731 32.334,50.000 34.884,50.000 33.635 C 50.000 32.976,51.005 32.707,53.467 32.706 L 55.822 32.705 55.822 33.647 C 55.822 34.618,55.924 34.730,56.518 34.412 C 56.770 34.277,56.849 34.051,56.849 33.470 L 56.849 32.705 58.197 32.705 L 59.545 32.705 60.252 31.939 C 60.915 31.219,60.959 31.109,60.959 30.153 C 60.959 29.035,61.220 28.596,61.884 28.596 C 62.628 28.596,62.927 25.781,62.399 23.740 C 61.074 18.623,55.623 15.529,50.856 17.188 M38.542 20.024 C 37.099 23.765,37.176 28.473,38.736 31.892 C 39.383 33.310,39.186 33.340,40.962 31.550 L 42.448 30.051 42.082 29.024 C 41.622 27.734,41.577 24.124,42.002 22.608 L 42.264 21.671 40.793 20.168 C 39.017 18.353,39.182 18.363,38.542 20.024 M66.185 20.131 C 65.001 21.339,64.726 21.713,64.816 21.994 C 65.356 23.681,65.428 24.212,65.419 26.455 C 65.404 30.854,65.427 30.934,67.168 32.397 L 67.983 33.082 68.402 32.166 C 69.956 28.771,70.026 23.673,68.567 20.164 C 67.835 18.407,67.874 18.407,66.185 20.131 M55.553 28.865 C 55.752 29.064,55.822 29.486,55.822 30.492 L 55.822 31.849 53.510 31.849 L 51.199 31.849 51.199 30.554 C 51.199 28.597,51.200 28.596,53.418 28.596 C 54.886 28.596,55.341 28.653,55.553 28.865 M56.207 37.460 C 55.750 37.536,55.581 41.784,56.036 41.778 C 56.912 41.767,60.788 40.381,60.788 40.079 C 60.788 39.931,60.213 39.384,60.058 39.384 C 60.002 39.384,59.931 39.557,59.901 39.769 C 59.849 40.130,59.754 40.157,58.348 40.204 L 56.849 40.253 56.849 38.887 C 56.849 37.439,56.814 37.360,56.207 37.460 M47.636 38.922 C 46.218 40.349,46.232 40.317,46.943 40.565 C 47.678 40.822,47.734 40.810,47.867 40.368 C 47.931 40.156,48.209 39.491,48.483 38.889 C 49.138 37.458,49.089 37.459,47.636 38.922 M30.251 57.317 C 29.795 57.553,29.280 57.987,29.105 58.282 C 28.930 58.577,28.706 58.911,28.607 59.024 C 28.405 59.254,27.568 61.728,27.568 62.094 C 27.568 62.223,27.491 62.329,27.397 62.329 C 27.303 62.329,27.226 62.443,27.226 62.582 C 27.226 62.909,26.369 65.470,26.222 65.582 C 26.160 65.629,25.898 65.995,25.638 66.396 C 25.379 66.796,25.109 67.123,25.039 67.123 C 24.969 67.123,24.323 67.682,23.603 68.365 C 22.362 69.542,21.741 70.387,21.117 71.747 C 20.542 72.999,20.670 77.294,21.302 77.968 C 21.405 78.078,21.625 78.461,21.791 78.819 C 22.266 79.845,23.533 81.082,24.535 81.498 C 25.026 81.701,25.582 81.934,25.771 82.014 C 25.959 82.095,26.267 82.213,26.455 82.277 C 26.644 82.341,28.724 82.457,31.079 82.535 C 35.092 82.668,36.594 82.829,37.414 83.215 C 37.603 83.304,38.219 83.560,38.784 83.784 C 40.300 84.385,41.841 85.778,42.405 87.057 C 42.574 87.442,42.760 87.795,42.816 87.842 C 43.609 88.501,43.548 96.798,42.748 97.297 C 42.455 97.479,42.472 104.996,42.765 105.094 C 42.883 105.133,42.979 105.292,42.979 105.447 C 42.979 105.869,43.843 108.048,44.010 108.048 C 44.090 108.048,44.203 108.199,44.262 108.384 C 44.404 108.832,46.727 111.148,47.359 111.473 C 47.634 111.614,47.937 111.819,48.031 111.928 C 48.125 112.037,48.626 112.303,49.144 112.518 C 49.662 112.734,50.127 112.969,50.177 113.041 C 50.757 113.868,58.048 113.824,58.048 112.993 C 58.048 112.910,58.161 112.842,58.300 112.842 C 58.672 112.842,60.445 111.972,60.445 111.790 C 60.445 111.704,60.580 111.583,60.745 111.522 C 62.115 111.012,64.515 108.225,65.065 106.507 C 65.200 106.083,65.368 105.696,65.437 105.647 C 66.050 105.209,66.032 98.265,65.414 97.118 C 64.257 94.969,64.233 84.846,65.381 83.323 C 65.460 83.219,65.738 82.536,65.999 81.806 C 66.260 81.075,66.551 80.430,66.645 80.372 C 66.739 80.314,66.918 80.025,67.042 79.731 C 67.333 79.043,68.625 77.358,69.621 76.370 C 70.674 75.325,71.409 74.658,71.507 74.658 C 71.601 74.658,72.580 73.977,72.875 73.708 C 72.983 73.609,73.544 73.341,74.121 73.111 C 74.699 72.882,75.171 72.638,75.171 72.570 C 75.171 72.417,77.209 71.803,78.253 71.642 C 78.677 71.577,79.079 71.439,79.146 71.335 C 79.318 71.072,86.951 71.073,87.121 71.337 C 87.224 71.498,90.597 71.918,91.784 71.918 C 92.246 71.918,92.134 71.171,91.596 70.670 C 91.415 70.501,91.267 70.281,91.267 70.180 C 91.267 69.667,88.307 66.421,86.474 64.926 C 86.051 64.580,85.513 64.125,85.277 63.913 C 85.042 63.701,84.757 63.527,84.643 63.527 C 84.530 63.527,84.337 63.386,84.213 63.212 C 84.090 63.039,83.643 62.680,83.219 62.415 C 82.795 62.150,82.132 61.675,81.746 61.360 C 81.360 61.045,80.963 60.788,80.865 60.788 C 80.767 60.788,80.644 60.676,80.592 60.539 C 80.539 60.402,80.184 60.130,79.803 59.936 C 79.422 59.741,79.110 59.517,79.110 59.438 C 79.110 59.284,77.229 58.390,76.905 58.390 C 76.799 58.390,76.712 58.327,76.712 58.249 C 76.712 57.645,72.201 57.568,71.764 58.164 C 71.707 58.242,71.439 58.420,71.167 58.560 C 70.430 58.941,68.925 60.488,68.383 61.422 C 68.121 61.873,67.814 62.320,67.702 62.414 C 67.589 62.509,67.326 62.990,67.118 63.485 C 66.909 63.979,66.680 64.384,66.609 64.384 C 66.538 64.384,66.380 64.634,66.257 64.940 C 66.134 65.246,65.789 65.885,65.491 66.360 C 65.192 66.835,64.812 67.509,64.646 67.858 C 64.480 68.207,64.285 68.493,64.213 68.493 C 64.141 68.493,63.868 68.917,63.605 69.435 C 63.343 69.953,63.077 70.377,63.013 70.377 C 62.949 70.377,62.687 70.762,62.431 71.233 C 62.175 71.704,61.910 72.089,61.842 72.089 C 61.774 72.089,61.623 72.301,61.507 72.560 C 61.133 73.390,60.773 73.973,60.634 73.973 C 60.560 73.973,60.321 74.319,60.103 74.743 C 59.885 75.167,59.647 75.514,59.575 75.514 C 59.502 75.514,59.336 75.726,59.205 75.985 C 58.800 76.786,58.494 77.243,58.005 77.776 C 57.746 78.059,57.534 78.384,57.534 78.499 C 57.534 78.613,57.342 78.888,57.106 79.110 C 56.871 79.331,56.678 79.588,56.678 79.680 C 56.678 79.773,56.369 80.258,55.992 80.757 C 55.615 81.257,55.218 81.861,55.109 82.100 C 55.000 82.339,54.848 82.534,54.771 82.534 C 54.693 82.534,54.473 82.842,54.281 83.219 C 53.867 84.030,53.686 84.058,52.927 83.433 C 51.405 82.180,51.030 81.774,50.590 80.905 C 50.329 80.388,50.056 79.966,49.985 79.966 C 49.913 79.966,49.747 79.754,49.616 79.495 C 49.219 78.710,48.902 78.213,48.587 77.883 C 48.423 77.710,48.288 77.464,48.288 77.337 C 48.288 77.209,48.114 76.912,47.902 76.676 C 47.498 76.226,47.185 75.743,46.788 74.957 C 46.657 74.698,46.491 74.486,46.418 74.486 C 46.345 74.486,46.148 74.182,45.980 73.810 C 45.812 73.438,45.545 72.994,45.385 72.823 C 45.226 72.652,44.889 72.158,44.635 71.726 C 44.382 71.294,44.022 70.802,43.834 70.632 C 43.647 70.462,43.493 70.231,43.493 70.118 C 43.493 70.005,43.301 69.705,43.065 69.451 C 42.830 69.197,42.632 68.935,42.626 68.870 C 42.619 68.804,42.355 68.403,42.038 67.979 C 41.721 67.556,40.753 65.795,39.886 64.067 C 37.593 59.495,36.454 58.017,34.759 57.415 C 34.289 57.248,33.904 57.052,33.904 56.980 C 33.904 56.630,31.072 56.891,30.251 57.317 M12.842 70.696 C 10.673 72.918,9.590 74.156,8.327 75.856 C 7.802 76.563,7.291 77.235,7.192 77.352 C 7.093 77.468,6.847 77.853,6.645 78.208 C 6.443 78.563,6.151 79.007,5.995 79.195 C 5.839 79.384,5.526 79.942,5.298 80.437 C 5.071 80.931,4.834 81.336,4.771 81.336 C 4.709 81.336,4.443 81.933,4.179 82.663 C 3.916 83.393,3.638 84.033,3.561 84.087 C 3.390 84.205,2.568 87.391,2.568 87.936 C 2.568 88.151,2.472 88.360,2.354 88.399 C 2.045 88.502,2.045 95.402,2.354 95.505 C 2.472 95.544,2.568 95.744,2.568 95.949 C 2.568 96.465,3.374 99.347,3.553 99.471 C 3.634 99.526,3.877 99.996,4.094 100.514 C 4.311 101.032,4.634 101.615,4.813 101.809 C 4.991 102.003,5.138 102.235,5.139 102.323 C 5.143 102.733,7.140 105.199,8.733 106.760 C 10.491 108.484,12.266 109.925,13.096 110.304 C 13.333 110.412,13.527 110.560,13.527 110.633 C 13.527 110.706,13.913 110.976,14.384 111.232 C 14.854 111.489,15.240 111.750,15.240 111.812 C 15.240 111.875,15.702 112.140,16.267 112.400 C 16.832 112.661,17.295 112.930,17.295 112.998 C 17.295 113.066,17.738 113.301,18.279 113.519 C 18.821 113.738,19.341 114.005,19.435 114.113 C 19.529 114.221,20.068 114.538,20.634 114.817 C 21.199 115.096,21.738 115.415,21.832 115.525 C 21.926 115.636,22.289 115.884,22.639 116.076 C 22.988 116.268,23.412 116.545,23.581 116.691 C 23.749 116.838,24.580 117.525,25.428 118.218 C 28.546 120.767,31.431 124.182,32.894 127.055 C 33.110 127.479,33.340 127.864,33.405 127.911 C 33.470 127.958,33.732 128.497,33.988 129.110 C 34.244 129.722,34.514 130.300,34.587 130.394 C 34.660 130.488,34.930 131.259,35.185 132.106 C 35.441 132.954,35.707 133.724,35.776 133.818 C 36.443 134.724,37.323 142.950,37.013 145.377 C 36.262 151.268,36.134 152.440,36.132 153.440 C 36.128 155.816,37.747 158.048,39.474 158.048 C 39.597 158.048,39.724 158.128,39.757 158.226 C 39.789 158.324,40.932 158.602,42.297 158.845 C 43.661 159.089,44.932 159.353,45.120 159.433 C 46.498 160.020,58.651 160.022,59.075 159.435 C 59.122 159.370,59.854 159.219,60.702 159.100 C 62.688 158.821,64.959 158.369,65.068 158.231 C 65.116 158.172,65.886 157.943,66.781 157.723 C 67.676 157.502,68.739 157.173,69.144 156.992 C 69.549 156.810,70.397 156.502,71.028 156.308 C 71.658 156.114,72.213 155.903,72.260 155.841 C 72.358 155.711,73.523 155.210,74.100 155.050 C 74.311 154.991,74.581 154.848,74.699 154.733 C 74.818 154.617,75.435 154.302,76.070 154.033 C 76.706 153.764,77.226 153.489,77.226 153.420 C 77.226 153.352,77.605 153.132,78.069 152.933 C 78.533 152.733,79.018 152.464,79.148 152.335 C 79.277 152.205,79.649 151.964,79.974 151.798 C 80.299 151.632,80.922 151.237,81.359 150.920 C 81.795 150.602,82.234 150.342,82.333 150.342 C 82.433 150.342,82.616 150.207,82.739 150.042 C 82.862 149.877,83.290 149.529,83.690 149.269 C 84.090 149.009,84.418 148.721,84.418 148.628 C 84.418 148.535,84.502 148.459,84.605 148.459 C 84.837 148.459,85.657 147.841,86.252 147.217 C 86.498 146.958,86.769 146.747,86.852 146.747 C 87.036 146.747,92.123 141.680,92.123 141.497 C 92.123 141.426,92.382 141.094,92.699 140.761 C 93.015 140.427,93.674 139.615,94.162 138.955 C 94.650 138.296,95.166 137.603,95.309 137.414 C 95.948 136.568,97.256 134.485,97.258 134.310 C 97.259 134.204,97.368 134.028,97.501 133.918 C 97.633 133.808,97.954 133.279,98.215 132.741 C 98.475 132.204,98.746 131.725,98.816 131.677 C 98.887 131.629,99.146 131.054,99.393 130.399 C 99.639 129.744,99.905 129.167,99.984 129.116 C 100.062 129.065,100.322 128.446,100.560 127.740 C 100.799 127.033,101.116 126.224,101.266 125.942 C 101.698 125.129,101.668 125.118,99.443 125.244 C 95.035 125.495,90.753 125.281,90.753 124.811 C 90.753 124.727,90.633 124.658,90.487 124.658 C 89.828 124.658,87.524 122.909,87.505 122.394 C 87.502 122.326,87.314 121.863,87.086 121.365 C 86.434 119.939,86.284 118.172,86.338 112.556 C 86.385 107.633,86.232 105.647,85.780 105.308 C 85.718 105.261,85.494 104.663,85.284 103.978 C 85.073 103.294,84.808 102.639,84.694 102.523 C 84.581 102.407,84.268 101.792,83.999 101.156 C 83.730 100.520,83.452 100.000,83.380 100.000 C 83.308 100.000,83.045 99.465,82.795 98.812 C 82.545 98.159,82.284 97.600,82.215 97.571 C 82.033 97.494,81.360 95.266,81.229 94.307 C 81.168 93.859,81.051 93.493,80.970 93.493 C 80.888 93.493,80.822 92.954,80.822 92.295 C 80.822 91.610,80.895 91.096,80.993 91.096 C 81.087 91.096,81.164 90.949,81.164 90.769 C 81.164 90.254,81.885 88.503,82.136 88.406 C 82.261 88.359,82.363 88.220,82.363 88.099 C 82.363 87.834,85.403 84.932,85.680 84.932 C 85.787 84.932,86.093 84.700,86.359 84.418 C 86.626 84.135,86.935 83.904,87.047 83.904 C 87.158 83.904,87.534 83.710,87.883 83.473 C 88.232 83.237,88.924 82.832,89.421 82.575 L 90.325 82.106 93.579 82.620 C 95.368 82.902,96.909 83.183,97.003 83.243 C 97.261 83.409,100.320 83.813,100.436 83.697 C 100.584 83.548,100.186 82.192,99.993 82.192 C 99.903 82.192,99.829 82.083,99.829 81.949 C 99.829 81.168,98.227 78.767,97.706 78.767 C 97.597 78.767,97.379 78.617,97.222 78.434 C 96.578 77.681,93.841 77.470,90.231 77.895 C 88.859 78.056,87.870 78.063,86.123 77.923 C 84.857 77.822,83.204 77.781,82.450 77.833 C 80.475 77.969,78.182 78.278,78.082 78.420 C 78.035 78.488,77.443 78.710,76.766 78.914 C 76.089 79.117,75.420 79.399,75.280 79.539 C 75.139 79.680,74.979 79.795,74.923 79.795 C 74.741 79.795,73.378 80.728,73.175 80.992 C 73.066 81.134,72.745 81.507,72.462 81.821 C 72.179 82.134,71.848 82.635,71.726 82.934 C 71.604 83.232,71.407 83.576,71.287 83.698 C 70.156 84.855,70.243 94.900,71.396 96.311 C 72.126 97.204,72.149 106.678,71.421 106.678 C 71.353 106.678,71.195 107.083,71.069 107.577 C 70.831 108.510,70.381 109.607,70.169 109.766 C 70.102 109.817,69.933 110.132,69.793 110.468 C 69.653 110.803,69.226 111.472,68.844 111.955 C 68.463 112.437,68.151 112.874,68.151 112.924 C 68.151 113.022,66.801 114.360,65.988 115.068 C 64.991 115.937,63.257 117.168,62.800 117.331 C 62.541 117.424,62.329 117.565,62.329 117.646 C 62.329 117.809,60.870 118.493,60.521 118.493 C 60.399 118.493,60.194 118.598,60.066 118.725 C 58.819 119.973,49.581 120.073,48.630 118.849 C 48.583 118.788,48.005 118.515,47.346 118.241 C 46.687 117.968,46.109 117.692,46.062 117.628 C 46.015 117.564,45.657 117.350,45.266 117.152 C 44.876 116.954,44.450 116.693,44.320 116.572 C 44.022 116.296,43.016 115.582,42.924 115.582 C 42.473 115.582,39.106 111.755,38.492 110.543 C 38.298 110.159,38.091 109.807,38.034 109.760 C 37.852 109.613,37.380 108.500,37.252 107.919 C 37.185 107.613,37.070 107.363,36.996 107.363 C 36.922 107.363,36.755 106.881,36.624 106.293 C 36.152 104.166,36.442 96.575,36.995 96.575 C 37.457 96.575,37.736 91.750,37.332 90.743 C 36.592 88.900,35.334 88.467,31.175 88.625 C 28.408 88.731,24.940 88.426,24.667 88.053 C 24.615 87.982,24.015 87.747,23.334 87.531 C 22.653 87.316,21.998 87.048,21.878 86.934 C 21.759 86.821,21.326 86.511,20.917 86.245 C 20.508 85.979,19.939 85.555,19.654 85.304 C 18.798 84.548,17.466 83.227,17.466 83.133 C 17.466 83.084,17.208 82.678,16.894 82.231 C 16.352 81.460,15.582 79.577,15.582 79.023 C 15.582 78.882,15.514 78.767,15.430 78.767 C 15.091 78.767,14.847 75.265,14.963 72.046 C 15.101 68.179,15.224 68.257,12.842 70.696 M91.010 88.414 C 90.016 88.671,89.384 88.983,89.384 89.218 C 89.384 89.309,89.274 89.384,89.140 89.384 C 88.694 89.384,87.347 90.908,87.128 91.662 C 86.667 93.243,87.179 95.958,88.114 96.893 C 88.341 97.121,88.527 97.401,88.527 97.515 C 88.527 97.630,88.703 97.913,88.917 98.144 C 89.131 98.376,89.533 99.042,89.810 99.625 C 90.087 100.208,90.363 100.685,90.422 100.685 C 90.482 100.685,90.754 101.359,91.028 102.183 C 91.301 103.007,91.579 103.723,91.646 103.773 C 92.252 104.229,92.378 108.099,92.030 115.582 C 91.927 117.780,92.040 118.182,92.894 118.682 C 93.425 118.992,95.972 119.147,96.090 118.876 C 96.122 118.804,96.582 118.610,97.113 118.445 C 99.774 117.618,104.539 113.114,105.578 110.441 C 105.742 110.020,105.934 109.598,106.004 109.503 C 106.594 108.717,106.613 104.026,106.029 103.605 C 105.957 103.553,105.748 103.164,105.564 102.740 C 105.247 102.011,103.493 100.138,101.474 98.373 C 101.043 97.997,100.689 97.596,100.688 97.483 C 100.686 97.370,100.415 97.072,100.086 96.821 C 99.756 96.569,99.486 96.268,99.486 96.152 C 99.486 96.036,99.297 95.736,99.066 95.487 C 98.835 95.237,98.433 94.571,98.174 94.006 C 97.915 93.441,97.642 92.979,97.567 92.979 C 97.493 92.979,97.430 92.883,97.427 92.765 C 97.375 89.985,93.942 87.657,91.010 88.414 M0.000 110.830 C 0.000 114.217,0.788 120.889,1.204 121.033 C 1.295 121.064,1.370 121.216,1.370 121.369 C 1.370 121.826,2.259 125.250,2.402 125.342 C 2.474 125.390,2.704 125.990,2.912 126.676 C 3.120 127.362,3.398 128.031,3.529 128.162 C 3.660 128.293,3.767 128.495,3.767 128.612 C 3.767 128.910,5.810 133.048,5.957 133.049 C 6.024 133.049,6.223 133.399,6.399 133.828 C 6.575 134.256,6.863 134.775,7.038 134.983 C 7.395 135.403,8.704 137.323,9.025 137.896 C 9.139 138.099,9.337 138.343,9.466 138.439 C 9.594 138.535,9.771 138.740,9.858 138.896 C 10.292 139.668,16.335 146.062,16.632 146.062 C 16.695 146.062,17.013 146.312,17.338 146.618 C 17.663 146.924,18.210 147.406,18.555 147.688 C 18.899 147.971,19.362 148.375,19.584 148.587 C 19.806 148.799,20.056 148.973,20.139 148.973 C 20.223 148.974,20.525 149.186,20.810 149.444 C 21.456 150.030,22.373 150.684,22.553 150.688 C 22.627 150.690,22.870 150.882,23.092 151.116 C 23.313 151.350,23.563 151.541,23.646 151.541 C 23.728 151.541,24.168 151.770,24.623 152.050 C 26.225 153.035,28.359 153.148,29.143 152.289 C 29.360 152.052,29.664 151.728,29.819 151.571 C 30.115 151.270,30.822 149.103,30.822 148.498 C 30.822 148.304,30.896 148.119,30.986 148.088 C 31.531 147.898,31.530 138.918,30.985 138.727 C 30.895 138.696,30.822 138.517,30.822 138.329 C 30.822 137.703,30.103 135.028,29.690 134.113 C 29.465 133.616,29.281 133.137,29.281 133.049 C 29.281 132.865,28.729 131.636,28.589 131.507 C 28.537 131.460,28.268 130.959,27.990 130.394 C 27.711 129.829,27.393 129.289,27.283 129.195 C 27.172 129.101,26.925 128.738,26.732 128.389 C 26.376 127.740,26.196 127.505,25.324 126.546 C 25.052 126.246,24.829 125.944,24.829 125.874 C 24.829 125.556,20.987 122.065,20.175 121.645 C 19.909 121.508,19.692 121.333,19.692 121.257 C 19.692 121.181,19.249 120.894,18.707 120.619 C 18.166 120.345,17.695 120.058,17.662 119.982 C 17.586 119.807,15.791 119.007,15.475 119.007 C 15.346 119.007,15.240 118.941,15.240 118.861 C 15.240 118.704,13.236 117.807,12.885 117.808 C 12.768 117.808,12.671 117.745,12.671 117.668 C 12.671 117.592,12.228 117.348,11.687 117.126 C 11.145 116.905,10.518 116.582,10.294 116.410 C 10.069 116.237,9.817 116.096,9.734 116.096 C 9.651 116.096,9.076 115.788,8.455 115.411 C 7.835 115.034,7.293 114.726,7.250 114.726 C 7.207 114.726,6.676 114.379,6.070 113.955 C 5.463 113.532,4.932 113.185,4.889 113.185 C 4.845 113.185,4.622 113.012,4.391 112.800 C 4.161 112.588,3.654 112.145,3.264 111.815 C 2.341 111.035,1.023 109.706,0.634 109.162 C 0.095 108.409,-0.000 108.658,0.000 110.830 " stroke="none" fill="#fb6406" fill-rule="evenodd"></path><path id="path1" d="M51.199 7.135 C 43.431 8.202,36.028 15.083,35.201 22.003 C 35.128 22.622,35.263 22.309,35.688 20.877 C 39.405 8.361,53.822 3.281,64.384 10.765 C 72.599 16.588,74.567 28.210,68.747 36.535 C 68.313 37.156,67.896 37.702,67.821 37.749 C 67.570 37.904,67.110 36.569,66.882 35.026 C 66.566 32.892,66.542 32.877,63.508 32.877 L 61.130 32.877 61.130 36.102 C 61.130 39.663,61.107 39.761,60.414 39.097 L 59.932 38.635 59.932 35.708 L 59.932 32.781 60.503 32.242 L 61.075 31.702 63.412 31.664 L 65.750 31.625 66.928 32.672 L 68.106 33.719 68.626 32.570 C 70.049 29.424,70.396 25.273,69.517 21.918 C 69.216 20.769,68.211 18.364,67.881 18.001 C 67.849 17.965,66.998 18.758,65.991 19.761 L 64.159 21.586 64.532 22.394 C 65.038 23.491,65.272 25.537,65.069 27.096 C 64.981 27.780,64.905 28.397,64.903 28.467 C 64.900 28.538,64.387 28.596,63.764 28.596 C 62.667 28.596,62.635 28.584,62.754 28.211 C 64.023 24.241,61.570 19.244,57.363 17.227 L 55.908 16.529 53.596 16.529 C 43.917 16.528,40.492 28.942,48.782 33.978 L 49.871 34.640 49.781 35.513 C 49.692 36.364,49.637 36.439,47.669 38.386 L 45.649 40.384 46.640 40.823 C 47.586 41.241,47.627 41.285,47.531 41.778 C 47.476 42.062,47.387 42.526,47.332 42.808 C 47.212 43.430,47.390 43.440,45.822 42.725 C 40.956 40.508,37.252 36.163,35.704 30.857 C 35.103 28.800,34.884 28.642,35.381 30.625 C 36.719 35.959,41.694 41.714,46.228 43.172 C 47.237 43.497,47.288 43.591,47.161 44.880 C 46.840 48.138,47.028 48.288,51.426 48.288 L 54.906 48.288 55.321 47.846 C 55.679 47.465,55.745 47.206,55.797 45.962 C 55.830 45.169,55.879 44.521,55.906 44.521 C 56.377 44.521,58.995 43.893,59.820 43.582 C 61.192 43.066,61.130 42.976,61.130 45.461 C 61.130 48.420,60.932 48.288,65.349 48.288 C 69.062 48.288,69.548 48.156,69.507 47.164 C 69.497 46.921,69.468 46.901,69.400 47.089 C 69.043 48.066,68.841 48.116,65.325 48.116 C 60.814 48.116,61.301 49.079,61.301 40.173 L 61.301 33.021 63.629 33.077 C 66.390 33.144,66.495 33.209,66.660 34.961 C 66.766 36.085,67.244 37.523,68.146 39.433 C 68.607 40.409,69.182 42.548,69.398 44.092 C 69.461 44.549,69.472 44.534,69.495 43.957 C 69.534 42.957,69.055 40.906,68.489 39.660 C 67.860 38.271,67.858 38.070,68.465 37.325 C 72.877 31.910,73.619 22.209,70.036 16.781 C 69.943 16.640,69.713 16.241,69.525 15.894 C 66.464 10.248,57.997 6.201,51.199 7.135 M51.027 9.538 C 50.065 9.705,47.020 10.645,46.371 10.976 L 45.675 11.331 46.509 12.215 C 46.968 12.701,47.796 13.573,48.349 14.151 L 49.354 15.203 50.063 14.890 C 51.744 14.146,55.468 14.146,57.101 14.889 L 57.791 15.203 59.615 13.295 L 61.439 11.387 60.478 10.895 C 58.242 9.751,53.630 9.089,51.027 9.538 M57.277 10.006 C 58.574 10.327,60.843 11.203,60.901 11.405 C 60.925 11.489,60.235 12.312,59.368 13.232 L 57.791 14.906 56.849 14.528 C 55.449 13.965,51.713 13.964,50.342 14.526 L 49.401 14.912 47.817 13.243 C 46.114 11.449,46.080 11.394,46.533 11.156 C 49.151 9.781,54.185 9.242,57.277 10.006 M55.532 16.862 C 59.903 17.789,63.304 22.372,62.769 26.615 C 62.541 28.417,62.482 28.596,62.109 28.596 C 61.431 28.596,61.130 29.080,61.130 30.171 C 61.130 31.134,61.095 31.217,60.336 32.028 L 59.542 32.877 58.196 32.877 L 56.849 32.877 56.849 33.651 C 56.849 34.379,56.522 34.760,55.896 34.760 C 55.855 34.760,55.822 34.336,55.822 33.818 L 55.822 32.877 53.331 32.877 C 50.644 32.877,50.518 32.918,49.894 34.000 C 49.626 34.464,47.564 33.062,46.403 31.626 C 40.975 24.918,47.066 15.069,55.532 16.862 M38.523 19.101 C 37.643 21.061,37.305 22.735,37.243 25.428 L 37.189 27.825 37.326 25.428 C 37.489 22.581,38.580 18.493,39.177 18.493 C 39.247 18.493,40.010 19.206,40.873 20.077 L 42.441 21.661 42.114 22.945 C 41.631 24.842,41.664 27.169,42.197 28.788 L 42.614 30.051 41.045 31.635 C 40.182 32.506,39.429 33.219,39.371 33.219 C 39.008 33.219,37.534 29.329,37.480 28.229 C 37.465 27.917,37.442 27.897,37.379 28.138 C 37.244 28.663,37.846 30.824,38.554 32.355 L 39.223 33.802 41.090 31.941 L 42.957 30.080 42.630 29.437 C 41.889 27.986,41.783 24.779,42.403 22.571 L 42.691 21.545 40.874 19.729 L 39.057 17.912 38.523 19.101 M68.299 19.221 C 70.084 22.927,70.281 26.939,68.884 31.155 C 68.097 33.530,68.128 33.518,66.625 32.059 C 65.441 30.910,65.411 30.859,65.411 30.029 C 65.411 29.561,65.324 29.091,65.218 28.985 C 65.075 28.842,65.081 28.496,65.242 27.644 C 65.517 26.183,65.372 24.210,64.877 22.703 L 64.499 21.552 66.022 20.023 C 67.772 18.265,67.829 18.244,68.299 19.221 M34.870 23.998 C 34.737 25.270,34.750 26.839,34.904 27.997 C 34.969 28.493,35.017 27.612,35.017 25.899 C 35.017 22.550,35.019 22.574,34.870 23.998 M51.653 28.909 C 51.445 29.139,51.370 29.548,51.370 30.455 L 51.370 31.688 53.553 31.640 L 55.736 31.592 55.788 30.500 C 55.866 28.847,55.565 28.596,53.507 28.596 C 52.203 28.596,51.889 28.649,51.653 28.909 M55.444 30.271 L 55.495 31.518 53.561 31.470 L 51.627 31.421 51.575 30.413 C 51.495 28.878,51.438 28.920,53.550 28.975 L 55.394 29.024 55.444 30.271 M65.136 29.209 C 65.193 29.358,65.240 29.939,65.240 30.499 L 65.240 31.518 63.313 31.470 L 61.387 31.421 61.335 30.413 C 61.257 28.901,61.208 28.938,63.247 28.938 C 64.717 28.938,65.050 28.986,65.136 29.209 M55.479 40.186 C 55.479 49.079,55.971 48.116,51.432 48.116 C 47.271 48.116,47.432 48.220,47.432 45.531 C 47.432 42.765,48.299 39.493,49.665 37.107 C 49.762 36.939,49.942 36.122,50.065 35.294 C 50.398 33.052,50.365 33.074,53.382 33.059 L 55.479 33.048 55.479 40.186 M59.589 36.473 L 59.589 39.897 58.390 39.897 L 57.192 39.897 57.192 36.473 L 57.192 33.048 58.390 33.048 L 59.589 33.048 59.589 36.473 M56.849 35.873 C 56.849 36.485,56.792 36.987,56.721 36.989 C 56.650 36.990,56.419 37.037,56.207 37.094 C 55.836 37.194,55.822 37.155,55.822 36.076 C 55.822 34.892,55.778 34.955,56.721 34.784 C 56.792 34.771,56.849 35.261,56.849 35.873 M56.849 38.620 L 56.849 40.082 58.348 40.032 C 59.754 39.986,59.849 39.959,59.901 39.598 C 59.931 39.386,60.014 39.212,60.085 39.212 C 60.256 39.212,61.038 40.048,60.945 40.133 C 60.443 40.594,56.714 41.952,55.952 41.952 C 55.880 41.952,55.822 40.917,55.822 39.652 C 55.822 37.150,55.746 37.358,56.721 37.181 C 56.792 37.168,56.849 37.815,56.849 38.620 M48.757 38.577 C 48.527 39.068,48.242 39.764,48.124 40.123 C 47.860 40.932,47.624 41.032,46.844 40.662 C 46.052 40.286,46.011 40.384,47.645 38.742 C 49.165 37.214,49.417 37.177,48.757 38.577 M61.130 41.701 L 61.130 42.820 60.317 43.170 C 59.634 43.463,58.461 43.777,56.207 44.271 C 55.839 44.352,55.822 44.307,55.822 43.269 L 55.822 42.182 57.149 41.891 C 57.879 41.731,58.977 41.374,59.589 41.096 C 61.136 40.395,61.130 40.393,61.130 41.701 M234.546 64.004 C 233.628 64.031,232.877 64.117,232.877 64.195 C 232.877 64.273,232.434 64.388,231.892 64.450 C 230.779 64.579,228.212 65.230,228.082 65.417 C 228.035 65.484,227.573 65.717,227.055 65.935 C 226.537 66.153,225.895 66.509,225.629 66.727 C 225.363 66.945,225.073 67.123,224.984 67.123 C 224.767 67.123,221.918 69.984,221.918 70.203 C 221.918 70.299,221.775 70.520,221.600 70.695 C 221.425 70.869,221.063 71.466,220.795 72.022 C 220.527 72.577,220.261 73.069,220.204 73.116 C 220.045 73.249,219.389 75.669,219.253 76.627 C 219.185 77.098,219.045 77.538,218.940 77.605 C 218.673 77.777,218.678 85.241,218.946 85.804 C 219.053 86.031,219.269 86.871,219.424 87.671 C 219.701 89.094,219.997 90.068,220.204 90.240 C 220.261 90.287,220.521 90.825,220.783 91.436 C 221.044 92.047,221.311 92.586,221.374 92.635 C 221.438 92.683,221.722 93.064,222.004 93.482 C 222.754 94.592,224.608 96.359,225.642 96.950 C 226.137 97.233,226.580 97.528,226.628 97.605 C 226.676 97.683,227.273 97.917,227.955 98.125 C 228.637 98.333,229.275 98.566,229.372 98.643 C 230.206 99.298,238.593 99.303,239.463 98.649 C 239.561 98.576,240.180 98.339,240.839 98.124 C 241.498 97.908,242.176 97.587,242.344 97.410 C 242.512 97.234,242.736 97.089,242.840 97.089 C 242.944 97.089,243.358 96.820,243.760 96.491 L 244.490 95.893 244.692 97.090 L 244.894 98.288 248.560 98.288 L 252.226 98.288 252.226 89.127 L 252.226 79.966 244.777 79.966 L 237.329 79.966 237.329 83.733 L 237.329 87.500 239.635 87.500 C 241.945 87.500,242.312 87.627,241.613 88.185 C 241.554 88.232,241.299 88.546,241.047 88.882 C 240.781 89.236,240.209 89.667,239.686 89.908 C 239.190 90.135,238.729 90.400,238.662 90.495 C 238.495 90.732,234.102 90.725,233.941 90.487 C 233.874 90.387,233.573 90.207,233.272 90.085 C 232.636 89.828,231.388 88.621,231.228 88.110 C 231.168 87.916,231.046 87.710,230.957 87.653 C 229.680 86.831,229.811 77.031,231.118 75.710 C 231.244 75.582,231.497 75.183,231.681 74.823 C 231.865 74.463,232.163 74.122,232.344 74.064 C 232.526 74.007,232.716 73.849,232.768 73.715 C 233.095 72.861,237.199 72.499,238.613 73.198 C 239.524 73.649,240.466 74.662,240.894 75.651 L 241.243 76.455 246.579 76.501 L 251.914 76.546 251.803 75.816 C 251.594 74.435,251.315 73.288,251.190 73.288 C 251.121 73.288,251.014 73.076,250.952 72.817 C 250.773 72.066,250.121 70.548,249.977 70.548 C 249.904 70.548,249.721 70.287,249.570 69.968 C 249.295 69.389,247.009 66.952,246.741 66.952 C 246.663 66.952,246.479 66.831,246.331 66.683 C 245.466 65.818,241.660 64.389,240.211 64.385 C 239.960 64.384,239.729 64.315,239.697 64.232 C 239.631 64.054,236.925 63.935,234.546 64.004 M111.301 81.421 L 111.301 98.288 124.058 98.288 L 136.815 98.288 136.815 93.836 L 136.815 89.384 129.623 89.384 L 122.432 89.384 122.432 76.969 L 122.432 64.555 116.866 64.555 L 111.301 64.555 111.301 81.421 M141.096 81.421 L 141.096 98.288 146.832 98.288 L 152.568 98.288 152.568 81.421 L 152.568 64.555 146.832 64.555 L 141.096 64.555 141.096 81.421 M158.733 81.421 L 158.733 98.288 164.298 98.288 L 169.863 98.288 169.863 91.610 L 169.863 84.932 175.599 84.932 L 181.336 84.932 181.336 80.822 L 181.336 76.712 175.599 76.712 L 169.863 76.712 169.863 75.000 L 169.863 73.288 177.055 73.288 L 184.247 73.288 184.247 68.921 L 184.247 64.555 171.490 64.555 L 158.733 64.555 158.733 81.421 M187.842 81.421 L 187.842 98.288 201.798 98.288 L 215.753 98.288 215.753 94.092 L 215.753 89.897 207.449 89.897 L 199.144 89.897 199.144 87.414 L 199.144 84.932 205.822 84.932 L 212.500 84.932 212.500 81.164 L 212.500 77.397 205.822 77.397 L 199.144 77.397 199.144 75.171 L 199.144 72.945 207.021 72.945 L 214.897 72.945 214.897 68.750 L 214.897 64.555 201.370 64.555 L 187.842 64.555 187.842 81.421 M257.877 76.424 C 257.877 88.275,257.935 89.657,258.483 90.706 C 258.619 90.968,258.736 91.297,258.742 91.438 C 258.770 92.090,260.147 94.222,261.167 95.193 C 262.463 96.429,262.572 96.512,263.442 96.932 C 263.913 97.160,264.385 97.427,264.491 97.526 C 264.597 97.626,265.175 97.847,265.775 98.018 C 266.375 98.190,267.329 98.487,267.894 98.679 C 269.755 99.311,279.254 99.278,280.048 98.637 C 280.144 98.559,280.701 98.374,281.285 98.226 C 281.869 98.078,282.602 97.842,282.912 97.702 C 284.101 97.165,286.644 95.443,286.644 95.174 C 286.644 95.099,286.875 94.831,287.158 94.579 C 287.440 94.327,287.673 94.038,287.674 93.936 C 287.676 93.834,287.855 93.582,288.072 93.376 C 288.289 93.171,288.608 92.535,288.781 91.964 C 288.954 91.392,289.150 90.925,289.216 90.925 C 289.699 90.925,289.799 88.716,289.856 76.755 L 289.914 64.555 284.341 64.555 L 278.767 64.555 278.767 75.856 C 278.767 83.276,278.708 87.158,278.596 87.158 C 278.502 87.158,278.425 87.281,278.425 87.433 C 278.425 89.248,276.893 90.154,273.825 90.154 C 270.618 90.154,269.553 89.462,269.250 87.179 C 269.186 86.692,269.066 86.252,268.984 86.202 C 268.903 86.151,268.836 81.260,268.836 75.332 L 268.836 64.555 263.356 64.555 L 257.877 64.555 257.877 76.424 M302.911 66.010 C 302.696 66.811,302.464 67.466,302.396 67.466 C 302.328 67.466,302.060 68.217,301.800 69.135 C 301.541 70.054,301.267 70.844,301.193 70.891 C 301.118 70.939,300.848 71.709,300.592 72.603 C 300.336 73.498,300.072 74.268,300.007 74.315 C 299.874 74.411,298.971 77.200,298.972 77.511 C 298.972 77.621,298.907 77.737,298.827 77.768 C 298.685 77.824,297.774 80.572,297.774 80.946 C 297.774 81.050,297.708 81.162,297.628 81.193 C 297.486 81.249,296.575 83.996,296.575 84.370 C 296.575 84.475,296.512 84.586,296.435 84.618 C 296.357 84.649,296.077 85.368,295.812 86.216 C 295.547 87.063,295.273 87.834,295.202 87.928 C 295.132 88.022,294.864 88.793,294.608 89.640 C 294.352 90.488,294.090 91.220,294.026 91.267 C 293.962 91.314,293.694 92.084,293.429 92.979 C 293.165 93.873,292.893 94.644,292.824 94.691 C 292.712 94.769,291.781 97.870,291.781 98.166 C 291.781 98.233,294.236 98.288,297.237 98.288 L 302.694 98.288 303.096 96.618 C 303.317 95.700,303.552 94.909,303.619 94.861 C 303.685 94.813,303.793 94.563,303.858 94.305 L 303.975 93.836 309.008 93.836 C 313.368 93.836,314.041 93.870,314.041 94.092 C 314.041 94.234,314.105 94.349,314.183 94.349 C 314.261 94.349,314.454 94.946,314.612 95.676 C 314.769 96.406,314.979 97.292,315.077 97.646 L 315.256 98.288 320.813 98.288 C 326.256 98.288,326.370 98.281,326.370 97.945 C 326.370 97.757,326.303 97.603,326.222 97.603 C 326.141 97.603,325.862 96.851,325.602 95.933 C 325.342 95.015,325.069 94.225,324.994 94.177 C 324.920 94.130,324.649 93.359,324.393 92.465 C 324.137 91.571,323.876 90.801,323.812 90.753 C 323.684 90.658,322.774 87.847,322.774 87.547 C 322.774 87.443,322.715 87.332,322.642 87.300 C 322.505 87.240,321.573 84.478,321.575 84.132 C 321.575 84.023,321.510 83.907,321.430 83.876 C 321.287 83.820,320.377 81.072,320.377 80.698 C 320.377 80.594,320.312 80.482,320.232 80.451 C 320.153 80.420,319.914 79.816,319.702 79.110 C 319.490 78.403,319.169 77.502,318.990 77.107 C 318.811 76.712,318.664 76.320,318.664 76.236 C 318.664 75.969,317.949 73.890,317.826 73.801 C 317.761 73.754,317.488 72.964,317.220 72.046 C 316.952 71.128,316.683 70.377,316.621 70.377 C 316.560 70.377,316.321 69.670,316.089 68.806 C 315.857 67.941,315.585 67.152,315.484 67.050 C 315.383 66.949,315.160 66.346,314.988 65.711 L 314.675 64.555 308.989 64.555 L 303.302 64.555 302.911 66.010 M328.938 81.421 L 328.938 98.288 334.418 98.288 L 339.897 98.288 339.897 92.466 L 339.897 86.644 342.038 86.644 C 343.215 86.644,344.178 86.710,344.178 86.792 C 344.178 86.873,344.671 86.979,345.273 87.027 C 348.045 87.250,348.620 88.439,348.627 93.964 C 348.629 95.400,348.697 96.575,348.779 96.575 C 348.861 96.575,348.980 96.961,349.042 97.432 L 349.156 98.288 354.715 98.288 L 360.274 98.288 360.274 97.538 C 360.274 97.081,360.174 96.705,360.017 96.575 C 359.876 96.458,359.760 96.262,359.760 96.141 C 359.760 96.019,359.680 95.892,359.582 95.860 C 359.472 95.823,359.346 94.300,359.252 91.864 C 359.102 87.982,358.895 86.331,358.504 85.911 C 358.394 85.793,358.112 85.329,357.877 84.880 C 357.442 84.050,355.609 82.705,354.913 82.705 C 354.754 82.705,354.623 82.628,354.623 82.534 C 354.623 82.440,354.688 82.363,354.768 82.363 C 354.847 82.363,355.136 82.170,355.410 81.935 C 355.684 81.700,355.972 81.507,356.051 81.507 C 356.252 81.507,357.877 79.801,357.877 79.591 C 357.877 79.497,358.030 79.204,358.218 78.940 C 359.257 77.480,359.392 70.643,358.396 69.863 C 358.336 69.816,358.145 69.469,357.971 69.092 C 357.639 68.373,356.382 66.952,356.077 66.952 C 355.978 66.952,355.772 66.804,355.617 66.624 C 355.463 66.444,354.771 66.117,354.081 65.899 C 353.390 65.680,352.787 65.453,352.740 65.394 C 352.325 64.871,346.438 64.566,336.601 64.560 L 328.938 64.555 328.938 81.421 M364.384 81.433 L 364.384 98.310 374.101 98.239 C 383.756 98.167,386.235 98.018,386.628 97.484 C 386.684 97.408,387.099 97.213,387.552 97.051 C 388.621 96.668,390.306 95.610,390.969 94.906 C 391.258 94.600,391.597 94.349,391.723 94.349 C 391.849 94.349,391.952 94.264,391.952 94.160 C 391.952 94.057,392.293 93.592,392.710 93.128 C 393.128 92.664,393.570 92.056,393.694 91.776 C 393.818 91.496,393.969 91.267,394.029 91.267 C 394.139 91.267,394.735 89.843,394.960 89.041 C 395.026 88.806,395.141 88.574,395.215 88.526 C 396.227 87.869,396.241 75.057,395.230 74.317 C 395.165 74.269,394.931 73.670,394.710 72.985 C 394.489 72.301,394.222 71.684,394.115 71.615 C 394.008 71.546,393.729 71.118,393.493 70.663 C 392.528 68.798,389.536 66.353,387.537 65.793 C 386.999 65.642,386.520 65.469,386.473 65.407 C 386.080 64.892,380.059 64.574,370.505 64.562 L 364.384 64.555 364.384 81.433 M347.300 73.384 C 347.904 73.590,348.138 73.785,348.376 74.281 C 348.544 74.629,348.746 75.048,348.827 75.212 C 349.028 75.622,349.010 76.541,348.801 76.541 C 348.707 76.541,348.630 76.717,348.630 76.931 C 348.630 78.299,347.384 78.752,343.251 78.885 L 339.897 78.992 339.897 75.942 L 339.897 72.891 343.213 73.006 C 345.476 73.085,346.773 73.205,347.300 73.384 M379.268 73.460 C 380.250 73.549,381.097 73.689,381.151 73.773 C 381.206 73.856,381.538 74.027,381.889 74.153 C 382.758 74.464,383.796 75.590,384.169 76.627 C 384.338 77.098,384.535 77.562,384.607 77.658 C 385.118 78.344,385.120 84.883,384.610 85.509 C 384.524 85.615,384.356 86.030,384.237 86.431 C 383.931 87.461,383.034 88.440,382.062 88.805 C 381.615 88.972,381.205 89.174,381.150 89.253 C 381.048 89.401,377.788 89.718,376.327 89.723 L 375.514 89.726 375.514 81.507 L 375.514 73.288 376.498 73.293 C 377.040 73.297,378.286 73.372,379.268 73.460 M309.506 77.825 C 309.635 78.108,309.910 79.071,310.118 79.966 C 310.325 80.860,310.588 81.785,310.702 82.021 C 310.817 82.256,311.088 83.176,311.304 84.066 C 311.521 84.955,311.801 85.880,311.926 86.120 L 312.153 86.558 309.049 86.605 C 306.070 86.650,305.509 86.600,305.945 86.331 C 306.055 86.263,306.348 85.363,306.597 84.329 C 306.846 83.296,307.109 82.412,307.182 82.364 C 307.254 82.316,307.530 81.372,307.794 80.265 C 308.059 79.159,308.329 78.253,308.395 78.253 C 308.461 78.253,308.618 77.772,308.744 77.183 L 308.973 76.113 309.123 76.712 C 309.205 77.042,309.378 77.543,309.506 77.825 M236.815 121.935 C 234.697 122.045,233.407 122.219,233.134 122.432 C 233.039 122.506,232.461 122.691,231.849 122.844 C 230.900 123.082,227.830 124.493,227.568 124.812 C 227.521 124.869,227.175 125.145,226.798 125.425 C 225.306 126.531,222.945 129.158,222.945 129.711 C 222.945 129.842,222.840 130.010,222.712 130.086 C 222.464 130.231,221.747 131.740,221.747 132.116 C 221.747 132.238,221.641 132.444,221.513 132.572 C 221.137 132.948,220.377 136.380,220.377 137.703 C 220.377 138.062,220.300 138.356,220.205 138.356 C 220.099 138.356,220.034 139.355,220.034 141.010 C 220.034 142.470,220.100 143.664,220.180 143.664 C 220.261 143.664,220.376 144.245,220.435 144.954 C 220.569 146.532,221.189 149.125,221.511 149.446 C 221.640 149.576,221.747 149.786,221.747 149.912 C 221.747 150.311,222.445 151.792,222.701 151.935 C 222.835 152.010,222.945 152.150,222.945 152.246 C 222.945 153.177,226.993 157.086,228.676 157.781 C 229.049 157.935,229.396 158.116,229.446 158.183 C 229.605 158.394,230.702 158.845,231.635 159.083 C 232.130 159.208,232.534 159.363,232.534 159.426 C 232.534 159.489,233.131 159.648,233.861 159.779 C 236.652 160.280,245.719 159.985,245.719 159.394 C 245.719 159.313,245.857 159.247,246.025 159.247 C 246.451 159.247,248.269 158.596,248.887 158.221 C 249.170 158.050,249.687 157.752,250.036 157.558 C 250.743 157.165,250.836 157.091,252.354 155.706 C 252.943 155.169,253.425 154.637,253.425 154.524 C 253.425 154.410,253.537 154.274,253.674 154.222 C 253.811 154.169,254.091 153.795,254.296 153.390 C 254.501 152.985,254.725 152.616,254.794 152.568 C 254.968 152.449,255.479 151.426,255.479 151.199 C 255.479 151.095,255.633 150.692,255.821 150.303 C 256.218 149.483,256.605 147.708,256.775 145.933 L 256.894 144.692 251.135 144.692 L 245.377 144.692 245.377 145.205 C 245.377 145.488,245.300 145.719,245.205 145.719 C 245.111 145.719,245.034 145.872,245.034 146.060 C 245.034 147.140,243.391 149.658,242.687 149.658 C 242.565 149.658,242.466 149.725,242.466 149.808 C 242.466 150.195,241.276 150.428,239.298 150.428 C 237.320 150.428,236.130 150.195,236.130 149.808 C 236.130 149.725,236.046 149.658,235.943 149.658 C 235.513 149.658,234.429 148.667,233.983 147.865 C 233.719 147.391,233.440 146.961,233.363 146.909 C 232.178 146.109,232.197 135.784,233.384 134.932 C 233.449 134.884,233.722 134.453,233.990 133.972 C 234.442 133.159,235.592 132.192,236.105 132.192 C 236.213 132.192,236.301 132.118,236.301 132.029 C 236.301 131.360,241.509 131.349,241.952 132.017 C 241.999 132.088,242.369 132.314,242.774 132.519 C 243.179 132.724,243.558 133.024,243.616 133.184 C 243.675 133.345,243.889 133.647,244.093 133.856 C 244.412 134.183,244.641 134.904,244.967 136.601 L 245.041 136.986 250.859 136.986 C 256.675 136.986,256.678 136.986,256.678 136.623 C 256.678 135.959,256.140 132.625,256.019 132.536 C 255.953 132.488,255.718 131.889,255.498 131.205 C 255.277 130.521,254.962 129.789,254.798 129.578 C 254.634 129.368,254.341 128.887,254.147 128.510 C 253.954 128.134,253.635 127.728,253.439 127.610 C 253.243 127.491,253.082 127.291,253.082 127.165 C 253.082 126.916,251.591 125.563,250.926 125.209 C 250.699 125.088,250.514 124.924,250.514 124.843 C 250.514 124.683,248.798 123.801,248.485 123.801 C 248.376 123.801,248.288 123.727,248.288 123.636 C 248.288 123.465,245.672 122.603,245.154 122.603 C 244.994 122.603,244.863 122.534,244.863 122.451 C 244.863 122.084,239.977 121.770,236.815 121.935 M378.082 121.868 C 376.339 121.917,373.459 122.268,373.459 122.432 C 373.459 122.505,373.170 122.614,372.817 122.674 C 371.796 122.847,369.799 123.505,369.551 123.749 C 369.427 123.872,369.228 123.973,369.110 123.973 C 368.293 123.973,364.511 127.168,363.593 128.633 C 363.341 129.036,363.084 129.405,363.023 129.452 C 362.812 129.616,362.158 130.843,362.158 131.076 C 362.158 131.205,362.047 131.422,361.912 131.557 C 361.681 131.788,361.066 133.640,360.508 135.788 C 359.916 138.063,360.061 145.431,360.737 147.421 C 360.879 147.840,361.103 148.597,361.235 149.104 C 361.489 150.080,362.579 152.479,362.966 152.911 C 363.092 153.052,363.413 153.503,363.679 153.914 C 364.175 154.676,366.225 156.849,366.449 156.849 C 366.518 156.849,366.821 157.080,367.123 157.363 C 367.426 157.646,367.775 157.877,367.900 157.877 C 368.024 157.877,368.231 157.981,368.359 158.109 C 368.634 158.384,369.905 158.964,370.632 159.146 C 370.913 159.216,371.184 159.339,371.233 159.419 C 371.771 160.289,382.887 160.281,383.191 159.410 C 383.222 159.320,383.363 159.247,383.504 159.247 C 383.986 159.247,385.972 158.362,386.419 157.948 C 386.664 157.720,386.956 157.534,387.066 157.534 C 387.177 157.534,387.439 157.336,387.649 157.095 C 388.207 156.453,388.421 156.647,388.615 157.976 L 388.788 159.161 392.853 159.207 L 396.918 159.253 396.918 149.233 L 396.918 139.212 388.613 139.212 L 380.308 139.212 380.308 143.236 L 380.308 147.260 382.877 147.260 C 384.289 147.260,385.445 147.303,385.445 147.355 C 385.445 147.578,384.741 148.973,384.628 148.973 C 384.559 148.974,384.272 149.189,383.990 149.451 C 382.250 151.064,376.268 151.403,375.391 149.937 C 375.317 149.814,375.131 149.643,374.977 149.557 C 374.140 149.090,373.127 147.223,372.849 145.634 C 372.783 145.257,372.643 144.840,372.538 144.708 C 372.280 144.385,372.284 138.041,372.542 137.875 C 372.642 137.810,372.777 137.473,372.841 137.126 C 373.029 136.103,373.634 134.389,373.903 134.120 C 374.040 133.984,374.265 133.653,374.403 133.386 C 374.541 133.119,374.963 132.727,375.341 132.515 C 375.718 132.302,376.027 132.069,376.027 131.996 C 376.027 130.934,381.501 131.238,382.739 132.368 C 383.045 132.648,383.346 132.877,383.409 132.877 C 383.545 132.877,384.760 134.889,384.760 135.115 C 384.760 135.210,387.091 135.274,390.521 135.274 L 396.282 135.274 396.177 134.277 C 395.953 132.128,395.073 129.844,393.809 128.132 C 393.447 127.642,393.151 127.208,393.151 127.168 C 393.151 127.083,391.768 125.685,391.684 125.685 C 391.653 125.685,391.119 125.300,390.497 124.829 C 389.874 124.358,389.259 123.973,389.130 123.973 C 389.000 123.973,388.780 123.859,388.641 123.719 C 388.365 123.443,385.942 122.603,385.423 122.603 C 385.247 122.603,385.103 122.534,385.103 122.451 C 385.103 122.151,380.782 121.793,378.082 121.868 M108.904 127.311 L 108.904 132.363 114.127 132.363 L 119.349 132.363 119.349 145.805 L 119.349 159.247 125.428 159.247 L 131.507 159.247 131.507 145.805 L 131.507 132.363 136.646 132.363 L 141.786 132.363 141.741 127.354 L 141.695 122.346 125.300 122.302 L 108.904 122.259 108.904 127.311 M145.548 140.753 L 145.548 159.247 151.541 159.247 L 157.534 159.247 157.534 152.997 L 157.534 146.747 159.546 146.750 C 163.960 146.756,165.608 147.199,166.251 148.552 C 166.383 148.830,166.564 149.106,166.653 149.165 C 166.908 149.332,167.106 151.551,167.132 154.538 C 167.145 156.045,167.245 157.701,167.354 158.219 L 167.551 159.161 173.759 159.206 L 179.966 159.251 179.966 158.556 C 179.966 158.021,179.864 157.773,179.525 157.481 C 179.006 157.034,178.784 155.269,178.773 151.498 C 178.770 150.298,178.701 149.315,178.620 149.315 C 178.539 149.315,178.431 148.872,178.382 148.330 C 178.159 145.917,177.098 144.023,175.514 143.211 C 175.090 142.994,174.648 142.736,174.532 142.637 C 174.417 142.539,174.079 142.410,173.783 142.351 L 173.245 142.243 173.904 141.923 C 174.266 141.747,174.626 141.488,174.704 141.349 C 174.782 141.210,174.943 141.096,175.061 141.096 C 175.296 141.096,177.055 139.310,177.055 139.071 C 177.055 138.989,177.201 138.753,177.380 138.547 C 178.706 137.019,178.764 128.544,177.455 127.588 C 177.376 127.530,177.201 127.268,177.065 127.006 C 176.757 126.407,175.342 125.000,175.048 125.000 C 174.928 125.000,174.829 124.919,174.829 124.819 C 174.829 124.627,173.099 123.801,172.698 123.801 C 172.567 123.801,172.434 123.726,172.403 123.633 C 172.282 123.277,169.085 122.766,166.310 122.658 C 164.780 122.599,163.527 122.485,163.527 122.405 C 163.527 122.326,159.482 122.260,154.538 122.260 L 145.548 122.260 145.548 140.753 M193.230 123.373 C 193.064 123.985,192.872 124.486,192.804 124.486 C 192.735 124.486,192.464 125.257,192.200 126.199 C 191.937 127.140,191.669 127.911,191.604 127.911 C 191.539 127.911,191.267 128.662,190.999 129.580 C 190.731 130.499,190.457 131.289,190.391 131.336 C 190.325 131.384,190.054 132.154,189.790 133.049 C 189.526 133.943,189.256 134.713,189.191 134.761 C 189.125 134.808,188.856 135.579,188.591 136.473 C 188.327 137.368,188.062 138.138,188.002 138.185 C 187.943 138.232,187.681 138.964,187.420 139.812 C 187.159 140.659,186.890 141.430,186.822 141.524 C 186.754 141.618,186.519 142.273,186.301 142.979 C 186.083 143.686,185.849 144.341,185.781 144.435 C 185.713 144.529,185.442 145.300,185.179 146.147 C 184.917 146.995,184.636 147.776,184.555 147.883 C 184.475 147.989,184.213 148.751,183.975 149.574 C 183.736 150.398,183.440 151.235,183.318 151.435 C 183.195 151.635,182.960 152.299,182.795 152.911 C 182.630 153.523,182.363 154.294,182.201 154.623 C 182.039 154.953,181.729 155.839,181.512 156.592 C 181.294 157.346,181.012 158.114,180.884 158.300 C 180.218 159.265,180.111 159.247,186.601 159.245 L 192.551 159.244 192.772 158.774 C 192.893 158.516,193.188 157.535,193.427 156.594 C 194.029 154.229,193.373 154.452,199.732 154.452 L 205.244 154.452 205.555 155.826 C 205.727 156.581,205.929 157.238,206.004 157.284 C 206.080 157.331,206.229 157.791,206.336 158.308 L 206.531 159.247 212.616 159.247 C 217.413 159.247,218.684 159.201,218.620 159.033 C 218.576 158.915,218.406 158.356,218.243 157.791 C 218.080 157.226,217.875 156.676,217.788 156.569 C 217.700 156.463,217.430 155.692,217.189 154.857 C 216.947 154.022,216.687 153.262,216.611 153.168 C 216.535 153.074,216.271 152.335,216.026 151.527 C 215.780 150.719,215.438 149.756,215.264 149.387 C 215.091 149.018,214.813 148.215,214.647 147.603 C 214.480 146.991,214.291 146.451,214.227 146.404 C 214.163 146.357,213.890 145.586,213.620 144.692 C 213.351 143.797,213.082 143.027,213.023 142.979 C 212.965 142.932,212.729 142.277,212.500 141.524 C 212.271 140.771,212.032 140.116,211.969 140.068 C 211.906 140.021,211.718 139.482,211.552 138.870 C 211.385 138.258,211.107 137.455,210.934 137.086 C 210.761 136.717,210.418 135.753,210.172 134.945 C 209.926 134.137,209.670 133.438,209.603 133.390 C 209.536 133.343,209.276 132.578,209.025 131.690 C 208.774 130.803,208.505 130.032,208.426 129.978 C 208.347 129.924,208.078 129.154,207.827 128.266 C 207.576 127.378,207.308 126.607,207.231 126.554 C 207.154 126.500,206.867 125.685,206.593 124.743 C 206.319 123.801,205.995 122.929,205.873 122.805 C 205.751 122.680,205.651 122.507,205.651 122.419 C 205.651 122.324,203.206 122.260,199.591 122.260 L 193.531 122.260 193.230 123.373 M261.473 140.753 L 261.473 159.247 267.466 159.247 L 273.459 159.247 273.459 153.574 L 273.459 147.901 274.071 147.195 C 274.407 146.807,275.004 146.162,275.397 145.761 L 276.110 145.033 276.403 145.419 C 276.564 145.631,276.827 146.094,276.987 146.447 C 277.147 146.800,277.337 147.089,277.408 147.089 C 277.479 147.089,277.712 147.455,277.925 147.902 C 278.138 148.350,278.492 148.934,278.711 149.200 C 278.930 149.466,279.110 149.782,279.110 149.903 C 279.110 150.023,279.283 150.309,279.495 150.539 C 279.707 150.769,280.094 151.396,280.356 151.934 C 280.618 152.471,280.902 152.911,280.987 152.911 C 281.072 152.911,281.196 153.084,281.263 153.296 C 281.329 153.508,281.670 154.105,282.021 154.623 C 282.371 155.141,282.708 155.725,282.769 155.920 C 282.830 156.115,283.015 156.424,283.178 156.605 C 283.342 156.787,283.629 157.243,283.816 157.620 C 284.004 157.997,284.345 158.517,284.576 158.776 L 284.996 159.247 292.155 159.247 C 299.762 159.247,299.736 159.249,299.003 158.463 C 298.832 158.279,298.468 157.744,298.195 157.275 C 297.922 156.805,297.637 156.344,297.562 156.250 C 297.185 155.774,295.719 153.424,295.719 153.295 C 295.719 153.214,295.555 152.970,295.354 152.755 C 295.153 152.539,294.807 152.022,294.586 151.605 C 294.364 151.188,294.028 150.680,293.838 150.477 C 293.648 150.273,293.493 150.012,293.493 149.895 C 293.493 149.779,293.313 149.466,293.092 149.200 C 292.872 148.934,292.469 148.330,292.198 147.860 C 291.927 147.389,291.568 146.854,291.400 146.671 C 291.233 146.489,291.096 146.250,291.096 146.140 C 291.096 146.030,290.923 145.750,290.711 145.517 C 290.499 145.284,290.103 144.660,289.831 144.131 C 289.559 143.602,289.231 143.129,289.103 143.080 C 288.975 143.030,288.870 142.887,288.870 142.761 C 288.870 142.636,288.523 142.040,288.099 141.438 C 287.676 140.837,287.329 140.247,287.329 140.129 C 287.329 140.011,287.222 139.853,287.090 139.777 C 286.959 139.702,286.641 139.255,286.383 138.784 C 286.125 138.313,285.817 137.813,285.697 137.671 C 285.578 137.530,285.322 137.130,285.129 136.782 L 284.777 136.150 285.724 135.156 C 287.218 133.585,293.014 127.598,295.511 125.047 C 296.762 123.769,297.757 122.638,297.723 122.534 C 297.679 122.402,295.604 122.332,290.798 122.301 L 283.936 122.256 283.235 122.886 C 282.850 123.232,282.534 123.585,282.534 123.670 C 282.534 123.755,282.284 124.072,281.978 124.375 C 281.672 124.677,281.029 125.385,280.548 125.947 C 280.068 126.509,279.067 127.668,278.322 128.522 C 277.578 129.376,276.622 130.484,276.199 130.985 C 275.484 131.829,274.907 132.485,273.932 133.562 L 273.545 133.990 273.499 128.125 L 273.454 122.260 267.464 122.260 L 261.473 122.260 261.473 140.753 M301.370 140.753 L 301.370 159.247 307.534 159.247 L 313.699 159.247 313.699 140.753 L 313.699 122.260 307.534 122.260 L 301.370 122.260 301.370 140.753 M320.377 140.753 L 320.377 159.247 326.027 159.247 L 331.678 159.247 331.680 149.272 L 331.683 139.298 332.194 140.366 C 332.475 140.953,332.705 141.495,332.705 141.570 C 332.705 141.645,332.980 142.128,333.315 142.643 C 333.650 143.158,334.032 143.829,334.162 144.135 C 334.293 144.441,334.481 144.692,334.580 144.692 C 334.679 144.692,334.760 144.793,334.760 144.917 C 334.760 145.041,335.107 145.659,335.531 146.291 C 335.955 146.923,336.304 147.496,336.306 147.564 C 336.309 147.632,336.617 148.149,336.991 148.712 C 337.365 149.275,337.671 149.830,337.671 149.945 C 337.671 150.060,337.772 150.216,337.894 150.291 C 338.017 150.366,338.335 150.852,338.601 151.370 C 338.867 151.888,339.141 152.350,339.208 152.397 C 339.276 152.444,339.545 152.868,339.805 153.339 C 340.065 153.810,340.328 154.234,340.389 154.281 C 340.450 154.328,340.726 154.790,341.002 155.308 C 341.279 155.826,341.645 156.399,341.814 156.582 C 341.984 156.765,342.123 156.990,342.123 157.082 C 342.123 157.174,342.412 157.699,342.765 158.247 L 343.408 159.244 349.272 159.245 L 355.137 159.247 355.137 140.753 L 355.137 122.260 349.316 122.260 L 343.496 122.260 343.452 132.320 C 343.415 140.753,343.372 142.265,343.190 141.666 C 343.071 141.273,342.914 140.926,342.842 140.895 C 342.769 140.864,342.486 140.377,342.212 139.812 C 341.938 139.247,341.575 138.635,341.405 138.452 C 341.235 138.270,341.096 138.039,341.095 137.939 C 341.095 137.839,340.787 137.295,340.411 136.729 C 340.035 136.164,339.726 135.625,339.724 135.531 C 339.723 135.437,339.566 135.167,339.377 134.932 C 338.971 134.426,337.923 132.711,337.478 131.822 C 337.306 131.477,337.105 131.169,337.033 131.137 C 336.960 131.105,336.680 130.636,336.409 130.094 C 336.139 129.553,335.869 129.109,335.810 129.109 C 335.751 129.109,335.477 128.647,335.201 128.082 C 334.926 127.517,334.651 127.055,334.590 127.055 C 334.528 127.055,334.301 126.689,334.083 126.241 C 333.866 125.794,333.602 125.350,333.497 125.254 C 333.391 125.159,333.078 124.658,332.800 124.141 C 332.523 123.625,332.157 123.053,331.987 122.870 C 331.817 122.688,331.678 122.476,331.678 122.399 C 331.678 122.323,329.135 122.260,326.027 122.260 L 320.377 122.260 320.377 140.753 M163.426 131.673 C 164.547 131.760,165.511 131.897,165.566 131.977 C 165.622 132.058,165.944 132.292,166.282 132.497 C 167.988 133.533,167.640 136.672,165.713 137.636 L 164.585 138.200 161.060 138.305 L 157.534 138.410 157.534 134.958 L 157.534 131.507 159.461 131.511 C 160.520 131.513,162.305 131.586,163.426 131.673 M199.826 135.816 C 199.828 135.973,199.889 136.127,199.964 136.159 C 200.038 136.190,200.315 137.102,200.579 138.185 C 200.844 139.268,201.119 140.231,201.191 140.325 C 201.263 140.420,201.537 141.383,201.801 142.466 C 202.064 143.549,202.327 144.473,202.384 144.521 C 202.509 144.623,202.911 146.129,202.911 146.492 C 202.911 146.709,202.411 146.747,199.572 146.747 C 196.347 146.747,196.233 146.735,196.233 146.404 C 196.233 146.216,196.298 146.062,196.378 146.062 C 196.458 146.062,196.736 145.195,196.996 144.135 C 197.256 143.076,197.529 142.132,197.603 142.038 C 197.676 141.943,197.952 140.980,198.216 139.897 C 198.481 138.814,198.753 137.904,198.821 137.876 C 198.890 137.847,199.083 137.213,199.252 136.468 C 199.523 135.265,199.818 134.931,199.826 135.816 " stroke="none" fill="#04048b" fill-rule="evenodd"></path><path id="path2" d="M51.455 7.546 C 36.111 9.622,29.755 27.800,40.539 38.763 C 42.410 40.665,45.909 42.979,46.913 42.979 C 47.182 42.979,47.629 41.511,47.402 41.373 C 47.371 41.354,46.941 41.156,46.447 40.931 C 45.295 40.409,45.229 40.570,47.511 38.333 C 48.904 36.966,49.504 36.257,49.578 35.884 C 49.636 35.596,49.719 35.232,49.762 35.076 C 49.819 34.873,49.561 34.634,48.851 34.231 C 41.373 29.989,42.882 18.692,51.207 16.587 C 58.194 14.820,64.793 21.376,62.909 28.211 C 62.808 28.576,62.850 28.596,63.742 28.596 L 64.681 28.596 64.787 27.954 C 65.098 26.077,64.766 22.868,64.162 21.901 C 63.981 21.611,64.173 21.361,65.896 19.649 L 67.835 17.723 68.121 18.141 C 70.428 21.509,70.786 27.341,68.980 32.146 C 68.248 34.094,68.239 34.097,66.888 32.859 L 65.747 31.813 63.396 31.836 L 61.045 31.859 60.578 32.411 C 59.688 33.464,59.913 39.212,60.844 39.212 C 60.907 39.212,60.959 37.748,60.959 35.959 L 60.959 32.705 63.455 32.705 C 66.502 32.705,66.813 32.878,67.004 34.676 C 67.064 35.240,67.239 36.126,67.394 36.643 L 67.675 37.585 68.182 36.986 C 71.082 33.560,72.542 27.604,71.687 22.688 C 70.039 13.212,60.782 6.284,51.455 7.546 M56.489 9.509 C 58.134 9.776,61.705 11.034,61.610 11.314 C 61.581 11.396,60.732 12.344,59.723 13.418 L 57.888 15.373 56.727 14.932 C 55.011 14.282,52.153 14.291,50.428 14.951 L 49.229 15.410 48.822 14.940 C 48.598 14.681,47.769 13.794,46.981 12.968 C 45.235 11.140,45.231 11.309,47.046 10.556 C 50.056 9.307,53.139 8.966,56.489 9.509 M40.990 19.671 L 42.847 21.534 42.580 22.625 C 41.980 25.071,42.066 27.729,42.799 29.386 L 43.119 30.109 41.245 32.013 C 39.196 34.093,39.225 34.084,38.606 32.862 C 36.453 28.614,36.457 22.976,38.615 18.428 C 39.002 17.613,38.868 17.543,40.990 19.671 M51.785 29.339 C 51.734 29.472,51.716 29.957,51.745 30.416 L 51.798 31.250 53.561 31.299 L 55.325 31.348 55.274 30.271 L 55.223 29.195 53.550 29.146 C 52.233 29.108,51.858 29.149,51.785 29.339 M61.593 29.218 C 61.527 29.284,61.473 29.787,61.473 30.337 L 61.473 31.336 63.279 31.336 L 65.085 31.336 65.034 30.265 L 64.983 29.195 63.348 29.147 C 62.448 29.120,61.659 29.152,61.593 29.218 M50.701 33.584 C 50.488 33.813,50.321 34.306,50.253 34.911 C 50.104 36.235,49.717 37.561,49.151 38.690 C 47.637 41.706,46.935 46.581,47.866 47.610 C 48.336 48.129,54.445 48.123,54.966 47.603 C 55.297 47.271,55.308 47.032,55.308 40.240 L 55.308 33.219 53.174 33.219 C 51.218 33.219,51.012 33.250,50.701 33.584 M57.192 36.379 L 57.192 39.555 58.394 39.555 L 59.597 39.555 59.550 36.430 L 59.503 33.305 58.348 33.254 L 57.192 33.204 57.192 36.379 M61.473 40.240 C 61.473 48.898,60.989 47.945,65.384 47.945 C 69.406 47.945,69.178 48.102,69.178 45.329 C 69.178 42.552,69.059 42.088,67.227 37.737 C 66.984 37.160,66.698 36.082,66.591 35.339 C 66.296 33.295,66.187 33.219,63.583 33.219 L 61.473 33.219 61.473 40.240 M56.207 35.119 C 55.655 35.325,55.621 36.986,56.170 36.986 C 56.608 36.986,56.712 36.714,56.646 35.745 C 56.596 35.027,56.567 34.985,56.207 35.119 M60.445 40.927 C 60.065 41.177,56.569 42.295,56.168 42.295 C 55.863 42.295,55.822 42.406,55.822 43.236 C 55.822 43.754,55.857 44.178,55.899 44.178 C 56.568 44.178,60.354 43.074,60.745 42.764 C 60.974 42.583,61.052 40.752,60.830 40.756 C 60.760 40.757,60.586 40.835,60.445 40.927 " stroke="none" fill="#fafafb" fill-rule="evenodd"></path><path id="path3" d="M51.672 7.484 C 51.885 7.525,52.193 7.524,52.356 7.481 C 52.520 7.438,52.346 7.404,51.969 7.406 C 51.592 7.408,51.459 7.443,51.672 7.484 M54.925 7.484 C 55.138 7.525,55.446 7.524,55.610 7.481 C 55.774 7.438,55.599 7.404,55.223 7.406 C 54.846 7.408,54.712 7.443,54.925 7.484 M56.678 7.706 C 57.102 7.795,57.641 7.909,57.877 7.960 C 58.196 8.029,58.237 8.011,58.039 7.889 C 57.893 7.800,57.353 7.685,56.840 7.635 L 55.908 7.544 56.678 7.706 M46.062 8.904 C 45.732 9.085,45.539 9.232,45.634 9.232 C 45.728 9.232,46.074 9.085,46.404 8.904 C 46.734 8.724,46.926 8.576,46.832 8.576 C 46.738 8.576,46.391 8.724,46.062 8.904 M60.103 8.604 C 60.241 8.741,61.815 9.405,61.815 9.327 C 61.815 9.288,61.603 9.148,61.344 9.016 C 60.831 8.755,59.965 8.467,60.103 8.604 M52.697 9.373 C 53.191 9.407,54.000 9.407,54.495 9.373 C 54.989 9.338,54.585 9.310,53.596 9.310 C 52.607 9.310,52.202 9.338,52.697 9.373 M44.050 9.951 C 43.466 10.325,43.277 10.576,43.793 10.293 C 44.186 10.077,44.801 9.601,44.692 9.597 C 44.645 9.596,44.356 9.755,44.050 9.951 M57.962 9.932 C 58.151 10.012,58.420 10.079,58.562 10.079 C 58.724 10.079,58.692 10.024,58.476 9.932 C 58.288 9.851,58.018 9.784,57.877 9.784 C 57.715 9.784,57.746 9.839,57.962 9.932 M42.038 11.406 L 41.353 12.019 42.080 11.474 C 42.707 11.006,42.933 10.780,42.765 10.790 C 42.742 10.792,42.414 11.069,42.038 11.406 M61.266 11.173 C 61.406 11.341,61.041 11.842,59.733 13.274 L 58.017 15.154 59.829 13.271 C 61.768 11.254,61.790 11.223,61.363 11.059 C 61.147 10.976,61.125 11.003,61.266 11.173 M66.610 12.928 C 67.216 13.540,67.751 14.041,67.798 14.041 C 67.845 14.041,67.388 13.540,66.781 12.928 C 66.174 12.316,65.639 11.815,65.592 11.815 C 65.545 11.815,66.003 12.316,66.610 12.928 M40.619 12.628 C 40.210 13.029,40.203 13.048,40.574 12.759 C 41.305 12.190,41.340 12.158,41.218 12.158 C 41.154 12.158,40.884 12.369,40.619 12.628 M47.175 13.185 C 47.638 13.656,48.056 14.041,48.104 14.041 C 48.151 14.041,47.810 13.656,47.346 13.185 C 46.882 12.714,46.464 12.329,46.417 12.329 C 46.370 12.329,46.711 12.714,47.175 13.185 M39.458 13.913 L 38.955 14.469 39.512 13.966 C 40.031 13.497,40.147 13.356,40.015 13.356 C 39.985 13.356,39.735 13.607,39.458 13.913 M68.322 14.897 C 68.523 15.180,68.726 15.411,68.773 15.411 C 68.820 15.411,68.694 15.180,68.493 14.897 C 68.292 14.615,68.089 14.384,68.042 14.384 C 67.995 14.384,68.121 14.615,68.322 14.897 M50.428 14.805 C 49.767 15.108,50.074 15.113,50.856 14.812 C 51.186 14.685,51.340 14.578,51.199 14.576 C 51.057 14.573,50.711 14.676,50.428 14.805 M56.336 14.812 C 57.117 15.113,57.425 15.108,56.764 14.805 C 56.481 14.676,56.134 14.573,55.993 14.576 C 55.852 14.578,56.006 14.685,56.336 14.812 M37.414 16.781 C 37.268 17.063,37.187 17.295,37.234 17.295 C 37.281 17.295,37.440 17.063,37.586 16.781 C 37.732 16.498,37.813 16.267,37.766 16.267 C 37.719 16.267,37.560 16.498,37.414 16.781 M52.873 16.393 C 53.275 16.429,53.892 16.428,54.243 16.392 C 54.593 16.355,54.264 16.325,53.510 16.326 C 52.757 16.326,52.470 16.357,52.873 16.393 M49.272 17.221 C 48.608 17.581,48.684 17.706,49.358 17.363 C 50.003 17.034,50.118 16.949,49.900 16.959 C 49.814 16.963,49.531 17.081,49.272 17.221 M57.206 17.016 C 57.382 17.174,58.390 17.637,58.390 17.560 C 58.390 17.462,57.441 16.952,57.257 16.952 C 57.190 16.952,57.167 16.981,57.206 17.016 M38.890 17.851 C 38.932 17.875,39.850 18.741,40.930 19.777 L 42.894 21.661 41.013 19.735 C 39.979 18.675,39.061 17.808,38.973 17.808 C 38.885 17.808,38.847 17.827,38.890 17.851 M47.187 18.683 C 46.660 19.164,46.068 19.800,45.871 20.096 C 45.631 20.455,45.720 20.394,46.140 19.910 C 46.486 19.512,47.129 18.877,47.571 18.498 C 48.012 18.120,48.322 17.810,48.259 17.809 C 48.196 17.809,47.713 18.202,47.187 18.683 M65.879 19.652 C 64.097 21.439,63.854 21.782,64.210 22.002 C 64.309 22.063,64.335 21.990,64.272 21.826 C 64.175 21.573,67.489 17.979,67.819 17.979 C 67.875 17.979,68.025 18.172,68.151 18.407 C 68.276 18.643,68.411 18.803,68.450 18.765 C 68.540 18.674,67.977 17.808,67.828 17.808 C 67.767 17.808,66.890 18.638,65.879 19.652 M60.529 19.392 C 60.990 19.934,61.397 20.377,61.434 20.377 C 61.551 20.377,60.501 19.108,60.087 18.750 C 59.870 18.562,60.069 18.851,60.529 19.392 M69.198 20.548 C 69.194 20.595,69.342 21.134,69.528 21.747 C 69.756 22.499,69.833 22.639,69.764 22.180 C 69.678 21.604,69.222 20.290,69.198 20.548 M37.414 21.747 C 37.349 22.043,37.332 22.320,37.375 22.364 C 37.419 22.408,37.504 22.197,37.564 21.896 C 37.707 21.183,37.569 21.044,37.414 21.747 M44.537 22.512 C 44.340 23.040,44.182 23.565,44.187 23.679 C 44.192 23.794,44.381 23.389,44.607 22.780 C 44.833 22.171,44.990 21.646,44.957 21.612 C 44.924 21.579,44.735 21.984,44.537 22.512 M64.584 22.945 C 64.593 23.390,64.862 24.121,64.868 23.716 C 64.871 23.527,64.807 23.219,64.726 23.031 C 64.636 22.821,64.581 22.788,64.584 22.945 M35.154 24.144 C 35.154 24.662,35.186 24.874,35.225 24.615 C 35.265 24.356,35.265 23.932,35.225 23.673 C 35.186 23.414,35.154 23.626,35.154 24.144 M42.166 24.229 C 42.168 24.606,42.203 24.740,42.244 24.527 C 42.285 24.314,42.284 24.006,42.241 23.842 C 42.198 23.678,42.165 23.853,42.166 24.229 M37.026 24.315 C 37.026 24.645,37.061 24.780,37.104 24.615 C 37.147 24.450,37.147 24.180,37.104 24.015 C 37.061 23.851,37.026 23.985,37.026 24.315 M71.984 25.856 C 71.984 27.033,72.011 27.515,72.045 26.926 C 72.078 26.338,72.078 25.375,72.045 24.786 C 72.011 24.197,71.984 24.679,71.984 25.856 M64.961 25.856 C 64.961 26.845,64.989 27.250,65.024 26.755 C 65.058 26.261,65.058 25.452,65.024 24.957 C 64.989 24.463,64.961 24.867,64.961 25.856 M70.094 25.856 C 70.094 26.657,70.124 26.984,70.160 26.584 C 70.196 26.184,70.196 25.529,70.160 25.128 C 70.124 24.728,70.094 25.056,70.094 25.856 M63.071 25.856 C 63.071 26.563,63.101 26.851,63.138 26.498 C 63.175 26.145,63.175 25.567,63.138 25.214 C 63.101 24.861,63.071 25.150,63.071 25.856 M34.978 25.856 C 34.978 26.280,35.012 26.453,35.052 26.241 C 35.093 26.030,35.093 25.683,35.052 25.471 C 35.012 25.259,34.978 25.432,34.978 25.856 M35.154 27.568 C 35.154 28.086,35.186 28.298,35.225 28.039 C 35.265 27.780,35.265 27.357,35.225 27.098 C 35.186 26.839,35.154 27.051,35.154 27.568 M37.026 27.397 C 37.026 27.727,37.061 27.862,37.104 27.697 C 37.147 27.532,37.147 27.262,37.104 27.098 C 37.061 26.933,37.026 27.068,37.026 27.397 M42.163 27.397 C 42.163 27.727,42.198 27.862,42.241 27.697 C 42.284 27.532,42.284 27.262,42.241 27.098 C 42.198 26.933,42.163 27.068,42.163 27.397 M44.187 28.033 C 44.176 28.299,44.877 30.181,44.957 30.100 C 44.990 30.067,44.833 29.541,44.607 28.932 C 44.381 28.323,44.192 27.919,44.187 28.033 M51.747 29.144 C 51.526 29.365,51.456 31.335,51.670 31.336 C 51.740 31.336,51.798 30.855,51.798 30.266 L 51.798 29.195 53.510 29.195 L 55.223 29.195 55.321 30.308 L 55.420 31.421 55.450 30.385 C 55.489 29.011,55.391 28.938,53.510 28.938 C 52.527 28.938,51.876 29.014,51.747 29.144 M61.507 29.144 C 61.385 29.266,61.313 29.770,61.331 30.385 L 61.360 31.421 61.459 30.308 L 61.558 29.195 63.271 29.195 L 64.983 29.195 65.082 30.308 L 65.181 31.421 65.210 30.385 C 65.249 29.011,65.151 28.938,63.271 28.938 C 62.287 28.938,61.637 29.014,61.507 29.144 M37.353 29.452 C 37.353 29.593,37.419 29.863,37.500 30.051 C 37.593 30.267,37.647 30.299,37.647 30.137 C 37.647 29.996,37.581 29.726,37.500 29.538 C 37.407 29.322,37.353 29.290,37.353 29.452 M45.848 31.592 C 46.044 31.875,46.536 32.414,46.941 32.791 C 47.566 33.372,47.538 33.320,46.755 32.449 C 45.516 31.072,45.434 30.994,45.848 31.592 M35.972 31.678 C 35.971 31.925,36.454 32.905,36.467 32.682 C 36.470 32.623,36.360 32.314,36.222 31.997 C 36.085 31.681,35.972 31.537,35.972 31.678 M62.200 31.805 C 62.836 31.838,63.876 31.838,64.512 31.805 C 65.148 31.772,64.628 31.745,63.356 31.745 C 62.085 31.745,61.565 31.772,62.200 31.805 M66.524 32.534 C 66.988 33.005,67.406 33.390,67.453 33.390 C 67.500 33.390,67.159 33.005,66.695 32.534 C 66.231 32.063,65.813 31.678,65.766 31.678 C 65.719 31.678,66.060 32.063,66.524 32.534 M70.738 32.382 C 70.633 32.685,70.576 32.962,70.613 32.999 C 70.650 33.035,70.766 32.818,70.871 32.515 C 70.977 32.213,71.033 31.935,70.997 31.898 C 70.960 31.862,70.844 32.079,70.738 32.382 M60.211 32.681 C 59.961 32.957,59.930 33.370,59.975 35.806 L 60.026 38.613 60.064 35.801 C 60.096 33.462,60.150 32.937,60.386 32.676 C 60.542 32.504,60.631 32.363,60.584 32.363 C 60.537 32.363,60.369 32.506,60.211 32.681 M38.779 33.208 C 39.134 33.895,39.242 33.931,39.731 33.528 L 40.154 33.179 39.688 33.457 C 39.231 33.729,39.217 33.725,38.956 33.220 C 38.810 32.937,38.651 32.705,38.604 32.705 C 38.557 32.705,38.636 32.932,38.779 33.208 M63.467 32.868 C 65.402 32.938,66.144 33.028,66.387 33.219 C 66.566 33.360,66.531 33.303,66.309 33.091 C 65.924 32.723,65.789 32.707,63.389 32.740 L 60.873 32.774 63.467 32.868 M68.349 33.314 C 68.230 33.576,68.070 33.703,67.952 33.630 C 67.822 33.550,67.802 33.585,67.895 33.734 C 68.036 33.963,68.664 33.387,68.664 33.029 C 68.664 32.764,68.554 32.863,68.349 33.314 M55.308 40.207 C 55.308 45.966,55.266 47.253,55.066 47.527 C 54.844 47.830,54.531 47.868,51.512 47.952 L 48.202 48.045 51.420 48.081 C 54.631 48.116,54.640 48.115,55.059 47.696 L 55.479 47.276 55.479 40.248 C 55.479 36.382,55.441 33.219,55.394 33.219 C 55.347 33.219,55.308 36.364,55.308 40.207 M61.380 40.154 C 61.380 44.015,61.402 45.619,61.430 43.719 C 61.457 41.818,61.457 38.659,61.430 36.698 C 61.402 34.738,61.380 36.293,61.380 40.154 M37.414 34.932 C 37.560 35.214,37.719 35.445,37.766 35.445 C 37.813 35.445,37.732 35.214,37.586 34.932 C 37.440 34.649,37.281 34.418,37.234 34.418 C 37.187 34.418,37.268 34.649,37.414 34.932 M56.207 34.946 C 55.995 35.026,55.822 35.131,55.822 35.179 C 55.822 35.226,56.021 35.190,56.265 35.097 L 56.709 34.928 56.651 35.941 C 56.619 36.499,56.650 36.919,56.721 36.875 C 56.792 36.831,56.849 36.380,56.849 35.873 C 56.849 34.851,56.769 34.734,56.207 34.946 M68.235 36.918 C 67.878 37.386,67.729 37.479,67.618 37.303 C 67.519 37.148,67.470 37.139,67.468 37.276 C 67.463 37.659,67.758 37.661,68.091 37.281 C 68.607 36.691,68.886 36.301,68.791 36.301 C 68.744 36.301,68.493 36.579,68.235 36.918 M39.719 38.057 C 40.139 38.504,40.505 38.870,40.532 38.870 C 40.661 38.870,40.525 38.716,39.769 38.007 L 38.955 37.243 39.719 38.057 M49.260 38.107 C 48.858 38.951,48.914 39.094,49.335 38.297 C 49.526 37.935,49.652 37.609,49.615 37.572 C 49.578 37.535,49.418 37.776,49.260 38.107 M67.135 37.586 C 67.135 37.680,67.246 37.949,67.380 38.185 C 67.515 38.420,67.625 38.536,67.625 38.442 C 67.625 38.348,67.515 38.078,67.380 37.842 C 67.246 37.607,67.135 37.491,67.135 37.586 M41.438 39.812 C 41.758 40.141,42.058 40.411,42.105 40.411 C 42.152 40.411,41.929 40.141,41.610 39.812 C 41.290 39.482,40.990 39.212,40.943 39.212 C 40.896 39.212,41.119 39.482,41.438 39.812 M68.065 39.683 C 68.132 39.848,68.303 40.315,68.445 40.720 C 68.587 41.125,68.735 41.424,68.775 41.385 C 68.866 41.294,68.159 39.384,68.034 39.384 C 67.984 39.384,67.998 39.518,68.065 39.683 M57.748 39.680 C 58.101 39.716,58.679 39.716,59.033 39.680 C 59.386 39.643,59.097 39.612,58.390 39.612 C 57.684 39.612,57.395 39.643,57.748 39.680 M45.711 40.083 C 45.606 40.280,45.565 40.485,45.620 40.540 C 45.674 40.594,45.719 40.555,45.719 40.452 C 45.719 40.349,45.840 40.143,45.988 39.995 C 46.136 39.847,46.177 39.726,46.080 39.726 C 45.982 39.726,45.816 39.887,45.711 40.083 M46.404 40.925 C 46.734 41.105,47.080 41.253,47.175 41.253 C 47.269 41.253,47.076 41.105,46.747 40.925 C 46.417 40.744,46.070 40.597,45.976 40.597 C 45.882 40.597,46.074 40.744,46.404 40.925 M60.103 40.925 C 59.773 41.105,59.580 41.253,59.675 41.253 C 59.769 41.253,60.116 41.105,60.445 40.925 C 60.775 40.744,60.967 40.597,60.873 40.597 C 60.779 40.597,60.432 40.744,60.103 40.925 M47.872 41.536 C 47.809 41.787,47.790 42.025,47.831 42.066 C 47.871 42.106,47.956 41.934,48.019 41.683 C 48.082 41.432,48.100 41.194,48.060 41.153 C 48.019 41.113,47.935 41.285,47.872 41.536 M44.349 41.858 C 44.349 41.905,44.580 42.063,44.863 42.209 C 45.146 42.355,45.377 42.436,45.377 42.389 C 45.377 42.342,45.146 42.184,44.863 42.038 C 44.580 41.892,44.349 41.811,44.349 41.858 M56.250 42.123 C 55.789 42.241,55.780 42.254,56.164 42.257 C 56.400 42.259,56.785 42.199,57.021 42.123 C 57.596 41.939,56.974 41.939,56.250 42.123 M59.075 43.408 C 58.746 43.534,58.592 43.641,58.733 43.644 C 58.874 43.647,59.221 43.543,59.503 43.414 C 60.165 43.111,59.857 43.106,59.075 43.408 M69.241 45.548 C 69.241 46.537,69.270 46.941,69.304 46.447 C 69.339 45.952,69.339 45.143,69.304 44.649 C 69.270 44.155,69.241 44.559,69.241 45.548 M61.473 47.389 C 61.473 47.994,62.170 48.117,65.406 48.081 L 68.579 48.045 65.268 47.952 C 62.249 47.868,61.937 47.830,61.715 47.527 C 61.582 47.344,61.473 47.282,61.473 47.389 " stroke="none" fill="#7c7cc4" fill-rule="evenodd"></path><path id="path4" d="M48.916 7.462 C 48.367 7.595,47.789 7.785,47.632 7.884 C 47.409 8.025,47.440 8.035,47.774 7.931 C 48.009 7.857,48.455 7.802,48.763 7.807 C 49.144 7.814,49.254 7.767,49.106 7.662 C 48.967 7.563,49.139 7.541,49.572 7.601 C 49.993 7.659,50.165 7.638,50.018 7.547 C 49.826 7.427,49.843 7.381,50.104 7.315 C 50.286 7.268,50.316 7.229,50.171 7.226 C 50.030 7.223,49.465 7.329,48.916 7.462 M53.042 7.316 C 53.350 7.354,53.813 7.353,54.070 7.314 C 54.327 7.275,54.075 7.244,53.510 7.245 C 52.945 7.246,52.735 7.278,53.042 7.316 M57.088 7.307 C 57.350 7.380,57.367 7.427,57.174 7.551 C 57.023 7.648,57.149 7.664,57.518 7.593 C 57.853 7.529,58.061 7.547,58.007 7.636 C 57.955 7.721,58.231 7.801,58.622 7.814 L 59.332 7.837 58.733 7.626 C 58.403 7.509,57.825 7.370,57.449 7.315 C 57.072 7.261,56.910 7.257,57.088 7.307 M45.591 8.647 C 45.096 8.872,44.692 9.101,44.692 9.156 C 44.692 9.211,44.930 9.132,45.221 8.982 C 45.512 8.831,45.876 8.756,46.029 8.815 C 46.183 8.874,46.250 8.864,46.179 8.794 C 46.109 8.723,46.227 8.567,46.442 8.448 C 47.097 8.085,46.545 8.214,45.591 8.647 M61.093 8.619 C 61.308 8.739,61.446 8.874,61.401 8.919 C 61.355 8.965,61.449 9.007,61.609 9.014 C 61.770 9.020,62.055 9.080,62.243 9.146 C 62.432 9.212,62.239 9.073,61.815 8.836 C 61.391 8.599,60.967 8.405,60.873 8.404 C 60.779 8.403,60.878 8.500,61.093 8.619 M42.792 10.301 C 41.449 11.236,39.046 13.551,38.377 14.555 C 38.032 15.072,38.064 15.054,38.610 14.425 C 38.958 14.025,39.302 13.734,39.376 13.779 C 39.449 13.825,39.654 13.690,39.832 13.481 L 40.154 13.099 39.769 13.426 C 38.777 14.265,39.534 13.246,40.700 12.172 C 41.904 11.062,42.502 10.655,42.193 11.157 C 42.116 11.280,42.146 11.308,42.271 11.230 C 42.381 11.162,42.431 11.041,42.381 10.960 C 42.331 10.880,42.515 10.654,42.790 10.458 C 43.357 10.054,43.570 10.004,43.390 10.317 C 43.319 10.441,43.332 10.471,43.423 10.388 C 43.509 10.310,43.579 10.178,43.579 10.096 C 43.579 10.014,43.733 9.830,43.921 9.687 C 44.750 9.061,43.944 9.499,42.792 10.301 M52.783 9.715 C 53.230 9.750,53.962 9.750,54.409 9.715 C 54.857 9.680,54.491 9.651,53.596 9.651 C 52.701 9.651,52.335 9.680,52.783 9.715 M63.253 9.845 C 63.273 9.981,63.355 10.153,63.436 10.226 C 63.516 10.300,63.521 10.253,63.445 10.123 C 63.352 9.962,63.384 9.912,63.546 9.966 C 63.677 10.010,63.784 10.129,63.784 10.231 C 63.784 10.333,63.854 10.481,63.940 10.559 C 64.033 10.644,64.039 10.603,63.955 10.459 C 63.849 10.276,63.887 10.244,64.108 10.329 C 64.568 10.505,64.255 10.134,63.703 9.848 C 63.280 9.629,63.221 9.629,63.253 9.845 M49.572 9.947 C 49.836 10.072,49.777 10.089,49.315 10.021 C 48.886 9.957,48.789 9.980,48.973 10.100 C 49.188 10.242,49.177 10.269,48.901 10.271 C 48.721 10.273,48.613 10.314,48.662 10.362 C 48.710 10.411,49.162 10.356,49.666 10.240 C 50.446 10.060,50.519 10.011,50.162 9.911 C 49.527 9.734,49.169 9.755,49.572 9.947 M56.849 10.092 C 57.556 10.251,58.326 10.434,58.562 10.497 C 58.946 10.601,58.941 10.590,58.515 10.390 C 58.254 10.268,58.083 10.125,58.135 10.072 C 58.188 10.020,58.016 10.011,57.754 10.053 C 57.476 10.098,57.359 10.070,57.474 9.988 C 57.586 9.906,57.223 9.836,56.617 9.824 L 55.565 9.802 56.849 10.092 M64.769 10.716 C 64.934 10.912,65.030 11.111,64.982 11.159 C 64.934 11.207,65.069 11.394,65.281 11.574 L 65.668 11.901 65.342 11.515 C 65.162 11.304,65.091 11.130,65.183 11.130 C 65.399 11.130,66.126 11.899,66.015 12.010 C 65.969 12.056,66.277 12.432,66.699 12.846 C 67.121 13.260,67.466 13.531,67.466 13.448 C 67.466 13.364,67.658 13.477,67.894 13.699 C 68.378 14.153,68.482 14.551,68.022 14.190 C 67.750 13.977,67.744 13.983,67.961 14.259 C 68.092 14.426,68.240 14.523,68.290 14.473 C 68.339 14.423,68.537 14.518,68.729 14.683 C 69.201 15.089,68.182 13.802,67.264 12.832 C 66.857 12.402,66.697 12.252,66.909 12.499 C 67.507 13.194,67.363 13.319,66.702 12.678 C 66.376 12.362,66.142 12.050,66.182 11.985 C 66.253 11.871,65.765 11.382,64.897 10.697 L 64.469 10.360 64.769 10.716 M46.480 11.202 C 46.153 11.441,46.154 11.452,46.533 11.855 C 47.118 12.479,46.992 12.631,46.361 12.062 C 45.958 11.699,45.991 11.761,46.482 12.287 C 47.152 13.006,47.521 13.282,47.067 12.725 C 46.858 12.468,46.870 12.450,47.175 12.564 C 47.418 12.655,47.347 12.516,46.930 12.085 C 46.606 11.751,46.375 11.449,46.416 11.415 C 46.456 11.380,46.644 11.266,46.832 11.161 C 47.021 11.055,47.093 10.967,46.993 10.964 C 46.894 10.961,46.662 11.068,46.480 11.202 M60.640 11.112 C 60.443 11.237,60.443 11.273,60.640 11.346 C 60.800 11.404,60.606 11.718,60.017 12.351 L 59.161 13.271 60.063 12.418 C 60.593 11.917,60.928 11.467,60.875 11.328 C 60.813 11.169,60.870 11.125,61.051 11.195 C 61.205 11.254,61.275 11.226,61.215 11.128 C 61.087 10.922,60.946 10.918,60.640 11.112 M48.395 13.849 C 49.315 14.803,49.484 14.912,49.765 14.733 C 50.074 14.536,50.074 14.533,49.755 14.634 C 49.509 14.712,49.158 14.486,48.385 13.750 L 47.346 12.761 48.395 13.849 M58.410 14.060 C 57.971 14.570,57.742 14.710,57.468 14.636 C 57.134 14.546,57.130 14.554,57.422 14.736 C 57.687 14.901,57.828 14.846,58.290 14.398 C 58.593 14.104,58.894 13.904,58.958 13.952 C 59.023 14.001,59.037 13.990,58.991 13.928 C 58.945 13.866,58.993 13.712,59.098 13.586 C 59.572 13.015,58.926 13.459,58.410 14.060 M53.211 13.991 C 53.423 14.032,53.769 14.032,53.981 13.991 C 54.193 13.950,54.020 13.917,53.596 13.917 C 53.172 13.917,52.999 13.950,53.211 13.991 M53.296 14.330 C 53.461 14.373,53.731 14.373,53.896 14.330 C 54.060 14.287,53.926 14.252,53.596 14.252 C 53.266 14.252,53.131 14.287,53.296 14.330 M69.469 15.867 C 69.549 16.074,69.517 16.114,69.352 16.012 C 69.200 15.918,69.166 15.938,69.249 16.072 C 69.317 16.182,69.458 16.220,69.561 16.156 C 69.687 16.079,69.709 16.147,69.626 16.362 C 69.558 16.540,69.557 16.630,69.624 16.563 C 69.691 16.496,69.855 16.532,69.989 16.643 C 70.122 16.754,70.064 16.560,69.859 16.213 C 69.467 15.549,69.285 15.387,69.469 15.867 M37.258 16.239 C 37.046 16.648,37.044 16.724,37.246 16.724 C 37.377 16.724,37.446 16.661,37.399 16.585 C 37.352 16.508,37.396 16.290,37.498 16.099 C 37.600 15.909,37.644 15.753,37.596 15.753 C 37.548 15.753,37.396 15.972,37.258 16.239 M52.864 16.733 C 53.168 16.771,53.708 16.772,54.063 16.735 C 54.418 16.697,54.170 16.667,53.510 16.666 C 52.851 16.665,52.560 16.695,52.864 16.733 M51.113 16.952 C 50.897 17.045,50.866 17.099,51.027 17.099 C 51.169 17.099,51.438 17.033,51.627 16.952 C 51.843 16.859,51.874 16.805,51.712 16.805 C 51.571 16.805,51.301 16.871,51.113 16.952 M56.593 17.311 C 57.052 17.486,57.458 17.599,57.494 17.563 C 57.530 17.527,57.390 17.443,57.182 17.377 C 56.964 17.308,56.881 17.209,56.987 17.144 C 57.087 17.082,56.852 17.023,56.463 17.013 L 55.757 16.994 56.593 17.311 M70.212 17.002 C 70.209 17.076,70.365 17.450,70.560 17.832 C 70.755 18.214,70.878 18.622,70.833 18.738 C 70.788 18.855,70.856 18.950,70.983 18.950 C 71.175 18.950,71.176 18.860,70.988 18.410 C 70.678 17.667,70.221 16.837,70.212 17.002 M49.715 17.404 C 49.715 17.544,49.852 17.551,50.200 17.430 C 50.810 17.217,50.810 17.168,50.200 17.191 C 49.933 17.201,49.715 17.297,49.715 17.404 M48.202 17.979 C 48.144 18.074,48.151 18.151,48.218 18.151 C 48.286 18.151,48.194 18.319,48.015 18.526 C 47.689 18.900,47.689 18.900,48.245 18.514 C 48.854 18.091,48.960 17.929,48.516 18.100 C 48.325 18.173,48.272 18.143,48.355 18.009 C 48.423 17.898,48.441 17.808,48.393 17.808 C 48.346 17.808,48.260 17.885,48.202 17.979 M36.121 18.431 C 36.027 18.680,35.990 18.924,36.040 18.974 C 36.089 19.023,36.131 18.955,36.133 18.821 C 36.135 18.623,36.162 18.621,36.280 18.807 C 36.376 18.958,36.418 18.856,36.406 18.508 C 36.383 17.863,36.341 17.852,36.121 18.431 M58.990 18.137 C 59.092 18.312,59.060 18.353,58.876 18.282 C 58.736 18.228,59.171 18.735,59.844 19.409 C 60.517 20.082,61.196 20.826,61.352 21.062 C 61.537 21.340,61.598 21.375,61.526 21.162 C 61.441 20.911,61.472 20.867,61.658 20.975 C 61.802 21.059,61.843 21.053,61.758 20.961 C 61.680 20.875,61.532 20.805,61.430 20.805 C 61.328 20.805,61.209 20.698,61.165 20.567 C 61.112 20.408,61.159 20.374,61.306 20.465 C 61.454 20.557,61.484 20.533,61.396 20.392 C 61.325 20.277,61.223 20.227,61.170 20.280 C 61.052 20.398,60.445 19.874,60.445 19.655 C 60.445 19.570,60.542 19.555,60.659 19.622 C 60.777 19.689,60.608 19.462,60.283 19.118 C 59.673 18.472,59.297 18.229,59.846 18.836 C 60.016 19.024,60.080 19.178,59.988 19.178 C 59.787 19.178,58.965 18.331,59.047 18.208 C 59.078 18.161,59.047 18.071,58.977 18.008 C 58.907 17.945,58.913 18.003,58.990 18.137 M67.204 18.501 C 67.149 18.591,67.161 18.664,67.231 18.664 C 67.301 18.664,67.141 18.892,66.874 19.170 C 66.608 19.448,66.304 19.660,66.200 19.641 C 66.096 19.622,66.026 19.692,66.045 19.796 C 66.084 20.010,65.179 20.933,64.956 20.907 C 64.877 20.898,64.805 20.948,64.797 21.019 C 64.789 21.089,64.721 21.287,64.646 21.458 C 64.568 21.635,64.595 21.956,64.709 22.205 C 64.818 22.446,64.862 22.807,64.806 23.008 C 64.725 23.298,64.741 23.321,64.883 23.116 C 65.030 22.907,65.066 22.938,65.079 23.288 C 65.088 23.523,65.136 23.614,65.186 23.489 C 65.236 23.364,65.144 22.916,64.983 22.493 C 64.644 21.605,64.562 21.747,66.580 19.738 C 67.797 18.527,67.838 18.527,68.421 19.751 C 68.652 20.237,68.789 20.479,68.725 20.291 C 68.661 20.103,68.602 19.783,68.594 19.580 C 68.585 19.377,68.508 19.255,68.421 19.308 C 68.334 19.362,68.314 19.274,68.376 19.112 C 68.439 18.948,68.419 18.861,68.330 18.916 C 68.243 18.970,68.109 18.910,68.033 18.783 C 67.846 18.473,67.330 18.297,67.204 18.501 M38.836 18.926 C 38.728 19.164,38.591 19.281,38.532 19.185 C 38.473 19.090,38.425 19.295,38.425 19.641 L 38.425 20.271 38.754 19.468 C 39.175 18.443,39.070 18.408,40.793 20.168 L 42.264 21.671 42.019 22.608 C 41.885 23.123,41.806 23.660,41.844 23.801 C 41.881 23.943,41.922 23.866,41.935 23.630 C 41.953 23.283,41.990 23.251,42.131 23.459 C 42.260 23.650,42.277 23.596,42.196 23.248 C 42.137 22.991,42.174 22.531,42.280 22.227 C 42.471 21.679,42.460 21.662,40.889 20.084 C 39.135 18.323,39.116 18.312,38.836 18.926 M46.234 20.289 C 46.118 20.429,45.960 20.505,45.883 20.458 C 45.806 20.410,45.687 20.461,45.619 20.572 C 45.536 20.706,45.570 20.726,45.722 20.632 C 45.886 20.530,45.919 20.570,45.839 20.777 C 45.681 21.189,45.776 21.130,46.206 20.548 C 46.594 20.022,46.616 19.830,46.234 20.289 M71.820 21.837 C 71.820 22.464,71.868 22.688,71.958 22.485 C 72.040 22.300,72.064 22.521,72.017 23.031 C 71.965 23.604,71.989 23.774,72.088 23.545 C 72.211 23.261,72.238 23.303,72.248 23.787 C 72.255 24.109,72.310 24.323,72.370 24.262 C 72.483 24.149,72.145 21.757,71.937 21.193 C 71.872 21.017,71.820 21.302,71.820 21.837 M34.930 22.440 C 34.786 23.293,34.777 23.884,34.899 24.452 C 35.061 25.207,35.066 25.183,34.988 24.058 C 34.941 23.390,34.968 22.948,35.048 23.060 C 35.133 23.178,35.198 22.843,35.206 22.247 C 35.224 20.937,35.178 20.969,34.930 22.440 M69.314 22.346 C 69.359 22.628,69.453 23.245,69.523 23.716 C 69.636 24.481,69.651 24.505,69.670 23.944 C 69.682 23.598,69.738 23.175,69.794 23.002 C 69.880 22.736,69.865 22.727,69.696 22.945 C 69.534 23.153,69.509 23.097,69.563 22.655 C 69.600 22.353,69.573 22.143,69.503 22.186 C 69.433 22.229,69.343 22.167,69.303 22.048 C 69.264 21.929,69.268 22.063,69.314 22.346 M61.913 22.175 C 61.979 22.363,62.168 22.979,62.332 23.545 L 62.631 24.572 62.608 23.690 C 62.595 23.169,62.527 22.888,62.442 23.005 C 62.357 23.122,62.335 23.039,62.388 22.800 C 62.437 22.579,62.428 22.446,62.369 22.506 C 62.310 22.565,62.155 22.438,62.026 22.223 C 61.844 21.920,61.819 21.909,61.913 22.175 M37.669 22.446 C 37.667 22.763,37.629 22.802,37.509 22.612 C 37.405 22.448,37.376 22.622,37.423 23.125 C 37.468 23.599,37.447 23.738,37.369 23.492 C 37.300 23.274,37.243 24.292,37.243 25.754 C 37.243 27.216,37.302 28.280,37.374 28.119 C 37.448 27.954,37.472 28.159,37.429 28.587 C 37.384 29.030,37.412 29.252,37.494 29.119 C 37.612 28.928,37.650 28.929,37.715 29.128 C 37.758 29.259,37.763 29.212,37.725 29.024 C 37.522 28.003,37.479 24.601,37.655 23.478 C 37.764 22.783,37.812 22.173,37.762 22.123 C 37.712 22.073,37.670 22.218,37.669 22.446 M44.863 22.756 C 44.863 22.871,44.793 22.922,44.708 22.869 C 44.622 22.817,44.596 22.940,44.649 23.143 C 44.702 23.346,44.676 23.469,44.590 23.417 C 44.501 23.362,44.424 24.172,44.410 25.316 L 44.385 27.312 44.520 25.599 C 44.595 24.658,44.740 23.622,44.842 23.299 C 44.945 22.976,44.991 22.674,44.946 22.628 C 44.900 22.583,44.863 22.640,44.863 22.756 M34.698 26.627 C 34.734 27.757,34.863 29.105,34.986 29.623 L 35.209 30.565 35.200 29.508 C 35.196 28.891,35.132 28.535,35.048 28.652 C 34.967 28.765,34.935 28.366,34.974 27.740 C 35.012 27.128,35.000 26.819,34.947 27.055 C 34.891 27.303,34.805 26.871,34.741 26.027 C 34.657 24.911,34.647 25.051,34.698 26.627 M41.992 25.000 C 41.992 25.330,42.027 25.464,42.070 25.300 C 42.113 25.135,42.113 24.865,42.070 24.700 C 42.027 24.536,41.992 24.670,41.992 25.000 M41.667 25.856 C 41.667 26.563,41.697 26.851,41.734 26.498 C 41.771 26.145,41.771 25.567,41.734 25.214 C 41.697 24.861,41.667 25.150,41.667 25.856 M69.749 25.856 C 69.749 26.563,69.780 26.851,69.817 26.498 C 69.853 26.145,69.853 25.567,69.817 25.214 C 69.780 24.861,69.749 25.150,69.749 25.856 M37.041 25.856 C 37.041 26.468,37.072 26.719,37.110 26.413 C 37.148 26.107,37.148 25.606,37.110 25.300 C 37.072 24.994,37.041 25.244,37.041 25.856 M62.723 25.856 C 62.723 26.374,62.755 26.586,62.794 26.327 C 62.833 26.068,62.833 25.644,62.794 25.385 C 62.755 25.126,62.723 25.338,62.723 25.856 M65.108 25.856 C 65.108 26.186,65.143 26.321,65.187 26.156 C 65.230 25.991,65.230 25.721,65.187 25.557 C 65.143 25.392,65.108 25.527,65.108 25.856 M62.424 27.835 C 62.359 28.178,62.341 28.494,62.383 28.536 C 62.425 28.578,62.512 28.331,62.576 27.987 C 62.641 27.643,62.659 27.328,62.617 27.286 C 62.575 27.244,62.488 27.491,62.424 27.835 M69.461 28.207 C 69.401 28.750,69.324 29.349,69.290 29.538 C 69.255 29.726,69.263 29.773,69.306 29.641 C 69.373 29.437,69.406 29.437,69.533 29.641 C 69.626 29.790,69.650 29.621,69.598 29.195 C 69.536 28.685,69.555 28.598,69.675 28.853 C 69.786 29.090,69.806 28.906,69.740 28.253 C 69.615 27.031,69.591 27.027,69.461 28.207 M44.495 27.859 C 44.444 28.191,44.477 28.366,44.579 28.303 C 44.677 28.242,44.706 28.351,44.649 28.569 C 44.596 28.773,44.622 28.896,44.708 28.843 C 44.793 28.790,44.863 28.841,44.863 28.957 C 44.863 29.072,44.898 29.132,44.940 29.089 C 44.983 29.047,44.919 28.630,44.798 28.162 C 44.584 27.336,44.575 27.327,44.495 27.859 M41.912 28.339 C 41.956 28.622,42.102 29.121,42.237 29.450 L 42.482 30.047 40.873 31.633 C 39.988 32.505,39.311 33.219,39.370 33.219 C 39.843 33.219,42.655 29.976,42.474 29.639 C 42.365 29.435,42.323 29.097,42.382 28.889 C 42.469 28.578,42.453 28.556,42.291 28.767 C 42.136 28.970,42.115 28.898,42.194 28.425 C 42.258 28.041,42.239 27.911,42.140 28.064 C 42.009 28.269,41.976 28.269,41.910 28.064 C 41.868 27.933,41.869 28.057,41.912 28.339 M65.037 28.563 C 64.990 28.880,65.032 29.076,65.142 29.056 C 65.244 29.038,65.370 29.441,65.426 29.966 C 65.526 30.906,65.526 30.906,65.552 30.137 C 65.566 29.713,65.473 29.067,65.346 28.701 L 65.114 28.037 65.037 28.563 M51.376 28.927 C 51.278 29.109,51.199 29.841,51.199 30.554 L 51.199 31.849 53.510 31.849 C 54.782 31.849,55.822 31.792,55.822 31.721 C 55.822 31.650,54.821 31.616,53.596 31.645 L 51.370 31.697 51.370 30.403 C 51.370 29.539,51.433 29.124,51.561 29.152 C 51.666 29.176,51.775 29.060,51.803 28.896 C 51.870 28.494,51.597 28.514,51.376 28.927 M55.211 28.893 C 55.233 29.044,55.374 29.185,55.525 29.207 C 55.846 29.254,55.741 28.838,55.397 28.707 C 55.260 28.654,55.187 28.728,55.211 28.893 M61.228 28.865 C 61.044 29.049,60.959 29.455,60.959 30.153 C 60.959 31.108,60.915 31.220,60.258 31.932 L 59.558 32.692 58.161 32.750 L 56.764 32.807 58.153 32.842 L 59.542 32.877 60.336 32.028 C 61.099 31.212,61.130 31.139,61.130 30.144 C 61.130 29.471,61.197 29.125,61.321 29.152 C 61.427 29.176,61.535 29.060,61.563 28.896 C 61.625 28.527,61.571 28.522,61.228 28.865 M72.091 29.024 C 72.071 29.418,72.037 29.466,71.942 29.227 C 71.871 29.045,71.820 29.311,71.820 29.869 C 71.820 30.393,71.837 30.822,71.857 30.822 C 71.959 30.822,72.274 28.901,72.201 28.720 C 72.154 28.605,72.105 28.741,72.091 29.024 M45.274 29.837 C 45.331 30.002,45.428 30.265,45.491 30.422 C 45.577 30.635,45.545 30.671,45.363 30.566 C 45.219 30.482,45.178 30.488,45.263 30.580 C 45.341 30.666,45.489 30.736,45.591 30.736 C 45.693 30.736,45.812 30.843,45.856 30.974 C 45.908 31.133,45.862 31.167,45.715 31.076 C 45.570 30.986,45.537 31.008,45.619 31.141 C 45.687 31.251,45.808 31.301,45.887 31.252 C 45.967 31.203,46.268 31.461,46.556 31.825 C 46.844 32.189,47.371 32.706,47.727 32.974 C 48.147 33.290,48.002 33.093,47.312 32.409 C 46.729 31.830,46.009 30.947,45.712 30.447 C 45.415 29.947,45.218 29.673,45.274 29.837 M65.582 31.047 C 65.582 31.076,65.833 31.327,66.139 31.603 L 66.695 32.106 66.192 31.550 C 65.723 31.031,65.582 30.914,65.582 31.047 M38.356 31.400 C 38.356 31.584,39.036 32.877,39.134 32.877 C 39.181 32.877,39.054 32.549,38.852 32.149 C 38.455 31.362,38.356 31.212,38.356 31.400 M52.611 31.462 C 53.153 31.496,54.039 31.496,54.580 31.462 C 55.122 31.428,54.679 31.400,53.596 31.400 C 52.513 31.400,52.070 31.428,52.611 31.462 M62.372 31.462 C 62.913 31.496,63.799 31.496,64.341 31.462 C 64.882 31.428,64.439 31.400,63.356 31.400 C 62.273 31.400,61.830 31.428,62.372 31.462 M68.259 32.473 L 67.964 33.093 67.541 32.696 C 67.261 32.433,67.061 32.357,66.949 32.469 C 66.836 32.582,66.966 32.809,67.334 33.143 C 67.639 33.420,67.743 33.474,67.565 33.262 C 67.387 33.050,67.326 32.877,67.429 32.877 C 67.532 32.877,67.661 32.949,67.716 33.037 C 67.862 33.273,68.469 33.185,68.376 32.941 C 68.332 32.826,68.385 32.566,68.494 32.362 C 68.603 32.158,68.661 31.960,68.623 31.922 C 68.585 31.885,68.422 32.132,68.259 32.473 M71.062 32.687 C 71.062 32.802,70.985 32.850,70.892 32.792 C 70.798 32.734,70.765 32.797,70.818 32.936 C 70.941 33.255,69.904 35.319,69.688 35.186 C 69.594 35.128,69.572 35.210,69.637 35.379 C 69.710 35.570,69.684 35.632,69.561 35.556 C 69.458 35.492,69.317 35.530,69.249 35.640 C 69.172 35.765,69.199 35.795,69.323 35.718 C 69.595 35.550,69.571 35.716,69.243 36.265 L 68.966 36.729 69.326 36.301 C 69.842 35.686,71.318 32.734,71.179 32.594 C 71.114 32.530,71.062 32.572,71.062 32.687 M36.065 33.048 C 36.223 33.703,36.385 33.773,36.406 33.196 C 36.416 32.908,36.369 32.768,36.298 32.882 C 36.203 33.036,36.146 33.029,36.067 32.853 C 36.009 32.725,36.009 32.813,36.065 33.048 M52.183 32.833 C 52.866 32.865,53.983 32.865,54.666 32.833 C 55.349 32.800,54.790 32.774,53.425 32.774 C 52.059 32.774,51.500 32.800,52.183 32.833 M60.998 36.114 L 60.959 39.437 60.574 39.110 L 60.188 38.784 60.518 39.174 C 61.066 39.820,61.140 39.411,61.087 36.032 L 61.036 32.791 60.998 36.114 M52.276 33.175 C 52.916 33.208,53.917 33.208,54.502 33.175 C 55.087 33.141,54.563 33.114,53.339 33.114 C 52.115 33.115,51.636 33.142,52.276 33.175 M57.748 33.173 C 58.101 33.210,58.679 33.210,59.033 33.173 C 59.386 33.136,59.097 33.106,58.390 33.106 C 57.684 33.106,57.395 33.136,57.748 33.173 M62.379 33.175 C 63.018 33.208,64.020 33.208,64.605 33.175 C 65.189 33.141,64.666 33.114,63.442 33.114 C 62.217 33.115,61.739 33.142,62.379 33.175 M48.716 33.640 C 48.904 33.793,49.058 33.986,49.058 34.068 C 49.058 34.151,49.128 34.282,49.214 34.361 C 49.306 34.445,49.315 34.408,49.235 34.271 C 49.134 34.096,49.187 34.066,49.450 34.150 C 49.651 34.213,49.854 34.173,49.926 34.056 C 50.007 33.925,49.980 33.896,49.852 33.975 C 49.742 34.044,49.364 33.933,49.012 33.730 C 48.661 33.527,48.527 33.486,48.716 33.640 M37.240 35.431 C 37.369 35.674,37.602 36.027,37.759 36.216 C 37.915 36.404,37.877 36.271,37.674 35.919 C 37.471 35.568,37.345 35.215,37.395 35.134 C 37.444 35.054,37.377 34.989,37.246 34.989 C 37.043 34.989,37.042 35.055,37.240 35.431 M38.316 37.087 C 38.518 37.378,38.821 37.723,38.990 37.855 C 39.285 38.083,39.285 38.078,38.998 37.740 C 38.657 37.339,38.602 37.078,38.896 37.260 C 39.023 37.338,39.047 37.306,38.965 37.173 C 38.894 37.058,38.792 37.007,38.738 37.061 C 38.685 37.114,38.485 37.023,38.295 36.858 C 37.969 36.576,37.970 36.589,38.316 37.087 M68.666 37.070 C 68.550 37.210,68.396 37.289,68.325 37.245 C 68.254 37.201,68.051 37.337,67.874 37.547 L 67.551 37.928 67.937 37.602 C 68.333 37.267,68.484 37.440,68.116 37.808 C 68.003 37.921,67.956 38.014,68.010 38.014 C 68.065 38.014,68.316 37.744,68.567 37.414 C 69.012 36.831,69.090 36.559,68.666 37.070 M56.164 37.332 C 55.769 37.461,55.779 37.470,56.293 37.450 C 56.599 37.437,56.849 37.366,56.849 37.292 C 56.849 37.135,56.747 37.141,56.164 37.332 M47.642 38.745 C 46.867 39.524,46.233 40.207,46.233 40.263 C 46.233 40.319,46.858 39.740,47.622 38.976 C 48.386 38.211,48.971 37.708,48.922 37.857 C 48.874 38.006,48.929 38.128,49.045 38.128 C 49.174 38.128,49.227 37.972,49.180 37.728 C 49.085 37.229,49.276 37.102,47.642 38.745 M40.405 38.913 C 41.535 40.101,41.365 40.220,40.160 39.084 L 39.298 38.271 40.234 39.255 C 41.301 40.377,41.203 40.310,41.320 40.006 C 41.373 39.870,41.005 39.387,40.440 38.850 L 39.469 37.928 40.405 38.913 M68.090 38.613 C 68.154 38.801,68.213 39.121,68.222 39.324 C 68.230 39.527,68.307 39.650,68.394 39.596 C 68.481 39.542,68.501 39.630,68.439 39.792 C 68.372 39.967,68.395 40.044,68.495 39.982 C 68.588 39.924,68.664 39.971,68.664 40.087 C 68.664 40.202,68.706 40.255,68.756 40.205 C 68.807 40.154,68.652 39.698,68.411 39.192 C 68.171 38.685,68.027 38.425,68.090 38.613 M48.235 39.341 C 48.194 39.411,48.068 39.758,47.954 40.111 C 47.732 40.802,47.669 40.835,47.043 40.597 C 46.756 40.488,46.632 40.501,46.632 40.640 C 46.633 40.911,47.812 40.896,47.903 40.624 C 47.942 40.506,48.044 40.452,48.129 40.504 C 48.214 40.557,48.243 40.494,48.193 40.364 C 48.143 40.234,48.181 39.922,48.276 39.670 C 48.436 39.251,48.409 39.036,48.235 39.341 M60.413 39.689 C 60.666 39.950,60.906 40.143,60.945 40.116 C 61.044 40.049,60.246 39.212,60.084 39.212 C 60.012 39.212,60.160 39.427,60.413 39.689 M57.748 39.851 C 58.101 39.888,58.679 39.888,59.033 39.851 C 59.386 39.814,59.097 39.784,58.390 39.784 C 57.684 39.784,57.395 39.814,57.748 39.851 M58.305 40.068 L 56.764 40.175 58.252 40.207 C 59.096 40.226,59.786 40.166,59.846 40.068 C 59.904 39.974,59.928 39.912,59.899 39.930 C 59.870 39.947,59.152 40.010,58.305 40.068 M41.438 40.284 C 41.438 40.338,41.766 40.636,42.166 40.946 C 42.566 41.256,42.759 41.352,42.594 41.160 C 42.429 40.968,42.338 40.767,42.391 40.714 C 42.445 40.660,42.394 40.558,42.279 40.487 C 42.146 40.405,42.114 40.429,42.193 40.556 C 42.372 40.847,42.112 40.796,41.751 40.470 C 41.579 40.314,41.438 40.231,41.438 40.284 M59.075 40.940 C 58.652 41.127,58.497 41.229,58.733 41.168 C 58.968 41.107,59.321 41.046,59.518 41.033 C 59.714 41.021,59.874 40.914,59.874 40.796 C 59.874 40.679,59.868 40.586,59.860 40.592 C 59.852 40.597,59.499 40.754,59.075 40.940 M60.957 41.730 C 60.911 42.409,60.935 42.902,61.011 42.826 C 61.086 42.750,61.124 42.195,61.094 41.592 L 61.041 40.497 60.957 41.730 M43.236 41.694 C 44.089 42.403,45.036 42.526,44.270 41.829 C 44.189 41.755,44.179 41.792,44.246 41.909 C 44.422 42.214,44.223 42.175,43.513 41.766 C 43.145 41.554,43.033 41.524,43.236 41.694 M69.435 44.777 C 69.447 48.553,69.757 48.288,65.325 48.288 C 60.939 48.288,61.162 48.442,61.093 45.372 C 61.052 43.575,61.004 43.246,60.788 43.300 C 60.646 43.335,60.326 43.373,60.077 43.386 C 59.827 43.398,59.658 43.465,59.702 43.536 C 59.745 43.607,59.686 43.664,59.571 43.664 C 59.455 43.664,59.400 43.704,59.448 43.752 C 59.496 43.800,59.856 43.726,60.247 43.588 L 60.959 43.337 60.959 45.418 C 60.959 47.442,60.971 47.511,61.419 47.979 L 61.879 48.459 65.334 48.459 L 68.789 48.459 69.240 48.007 C 69.704 47.544,69.889 44.153,69.539 42.551 C 69.477 42.269,69.430 43.271,69.435 44.777 M46.500 43.425 L 47.003 43.631 47.003 45.522 C 47.003 46.778,47.073 47.484,47.211 47.622 C 47.375 47.786,47.379 47.686,47.233 47.160 C 47.123 46.761,47.090 45.922,47.154 45.087 C 47.226 44.138,47.199 43.647,47.071 43.568 C 46.934 43.483,46.934 43.418,47.068 43.335 C 47.171 43.271,46.972 43.219,46.626 43.219 L 45.996 43.219 46.500 43.425 M56.079 44.529 C 55.840 44.637,55.944 44.652,56.421 44.579 C 56.798 44.522,57.138 44.447,57.178 44.412 C 57.325 44.283,56.407 44.380,56.079 44.529 M55.223 47.945 C 54.866 48.339,48.486 48.477,47.720 48.107 C 47.359 47.932,47.357 47.935,47.678 48.193 C 47.954 48.414,48.596 48.459,51.458 48.459 L 54.906 48.459 55.308 48.031 C 55.529 47.795,55.670 47.603,55.621 47.603 C 55.573 47.603,55.393 47.757,55.223 47.945 " stroke="none" fill="#5a3d86" fill-rule="evenodd"></path></g></svg>