<?xml version="1.0" encoding="utf-8"?>
<!-- Generator: Adobe Illustrator 27.8.0, SVG Export Plug-In . SVG Version: 6.00 Build 0)  -->
<svg version="1.1" id="Laag_1" xmlns="http://www.w3.org/2000/svg" xmlns:xlink="http://www.w3.org/1999/xlink" x="0px" y="0px"
	 viewBox="0 0 240 64" style="enable-background:new 0 0 240 64;" xml:space="preserve">
<style type="text/css">
	.st0{fill-rule:evenodd;clip-rule:evenodd;}
	.st1{font-family:'Swiss721BT-Black';}
	.st2{font-size:16.4446px;}
	.st3{font-size:18.0385px;}
	.st4{fill:#FFFFFF;stroke:#FFA300;stroke-width:0.5;stroke-miterlimit:10;}
</style>
<path class="st0" d="M73,33c-3.7,2-4.2,3.4-2.3,6.9c0.6,1.2,1,2.3,0.9,3.6c-0.3,4.6,0.5,5.4,5.3,4.9c-2.8,8.5-12.5,13.8-21.2,11.8
	c-1.7-0.4-2.1-1.1-1.8-2.9c1-5.8-1.4-10.6-6.3-13.1c-7.2-3.7-7.9-9.7-1.3-15.8c-0.2,2.1-0.3,3.9,1.1,5.4c1.4,1.5,3.1,1.8,5.1,1.6
	c1.9-0.2,2,1.1,1.6,2.6c-0.9,3.2,0,5.8,2.8,7.5c2.3,1.4,4.7,1.4,6.9-0.2c2.7-1.9,3.3-4.5,2.5-7.7c-1.1-4.3,0.8-6.3,5.3-6
	C72,32.3,73.5,31.7,73,33z"/>
<path class="st0" d="M50.7,13.7c0-4.1,2.2-7.5,5.6-8.9c3.6-1.5,7.6-0.7,10.3,2c2.7,2.8,3.6,6.9,1.7,10.3C66,21,63.4,24.8,61,28.6
	c-0.4,0.7-1.1,1.6-1.8,0.4c-2.8-4.5-6.3-8.6-8.3-13.7C50.6,14.7,50.7,14,50.7,13.7z"/>
<path class="st0" d="M73.6,29.5c-1.5-0.1-2.6-0.4-3.8-0.3c-4.4,0.3-7,4.1-5.9,8.8c0.5,2.3,0.5,4.2-1.5,5.6c-1.5,1-3.1,1-4.6,0
	c-1.9-1.3-2-3.1-1.6-5.3c0.7-3.5-0.6-5.1-4.1-5.1c-1.5,0-2.9,0-3.6-1.5c-0.7-1.5-0.1-2.8,1.1-3.7c1.4-1,0.7-4.1,3-3.7
	c1.7,0.3,2.1,2.6,3.1,4c1.2,1.6,2.2,3.3,3.3,4.9c0.1,0.2,0.3,0.3,0.9,0.8c1.6-2.5,3.4-4.8,4.8-7.4c1.3-2.4,2.6-2.5,4.6-1
	C70.9,26.6,72.5,27.4,73.6,29.5z"/>
<path class="st0" d="M41,42.6c1.5,1.9,3.5,2.7,5.5,3.7c3.9,1.8,6.1,6.1,5.4,10c-0.3,1.9-1,2.4-2.7,1.2C44.1,53.9,41,49.2,41,42.6z"
	/>
<path class="st0" d="M73.8,43.4c0.2-1.8-0.3-3.4-1.4-4.9c-0.8-1.1-0.7-2.3,0.6-2.9c1.2-0.6,2,0.2,2.4,1.3c0.5,1.3,1.4,2.1,2.3,3
	c1.2,1.1,1.1,2.8,0.3,3.8c-0.8,1.2-2.3,2.5-3.5,2.5C73,46.2,74,44.4,73.8,43.4z"/>
<path class="st0" d="M73,33c-0.5-0.4-0.9-0.9-1.4-1.3c1.6,0.4,4-1.3,4.9,1.9C75.2,33.4,74.1,33.2,73,33z"/>
<text transform="matrix(1 0 0 1 79.5162 38.8689)" class="st1 st2">LIFEGUARD</text>
<text transform="matrix(1 0 0 1 79.5162 60.5154)" class="st1 st3">TRACKING</text>
<path class="st4" d="M60,6.5c-3.6,0-6.6,3-6.6,6.6s3,6.6,6.6,6.6s6.6-3,6.6-6.6S63.7,6.5,60,6.5z M56.7,13.2c0-1.8,1.5-3.3,3.3-3.3
	c1.8,0,3.3,1.5,3.3,3.3c0,1.8-1.5,3.3-3.3,3.3C58.2,16.5,56.7,15,56.7,13.2z M63.8,14.7c0.2-0.4,0.3-1,0.3-1.5
	c0-0.5-0.1-1.1-0.3-1.5l1.2-1.2c0.5,0.8,0.7,1.7,0.7,2.7s-0.2,1.9-0.7,2.7L63.8,14.7z M62.8,8l-1.2,1.3C61.1,9.1,60.5,9,60,9
	c-0.5,0-1.1,0.1-1.5,0.3L57.3,8C58.1,7.6,59,7.4,60,7.4C61,7.4,61.9,7.6,62.8,8z M54.9,10.4l1.2,1.2c-0.2,0.4-0.2,1-0.2,1.5
	c0,0.5,0.1,1.1,0.3,1.5L55,15.9c-0.5-0.8-0.7-1.7-0.7-2.7S54.5,11.3,54.9,10.4z M57.3,18.3l1.2-1.2c0.4,0.2,1,0.2,1.5,0.2
	c0.5,0,1.1-0.1,1.5-0.3l1.2,1.2C61.9,18.7,61,19,60,19C59,19,58.1,18.7,57.3,18.3z"/>
<path class="st4" d="M64.2,14.5c0-0.1-0.1-0.2-0.2-0.2h-1c-0.1,0-0.2,0.1-0.2,0.2v0.7h1.5L64.2,14.5z M58.8,16.2
	c0,1.4-0.9,1.8-1,3.8v0.7c0,0.3,0.2,0.5,0.5,0.5h2c0.3,0,0.5-0.2,0.5-0.5v-4.9h-1.5C59,15.7,58.8,15.9,58.8,16.2z M64.7,16.2
	c0-0.3-0.2-0.5-0.5-0.5h-1.5v4.9c0,0.3,0.2,0.5,0.5,0.5h2c0.3,0,0.5-0.2,0.5-0.5V20C65.6,18,64.7,17.6,64.7,16.2z M61.2,18.2h1v-2.5
	h-1V18.2z M60.5,14.2h-1c-0.1,0-0.2,0.1-0.2,0.2l0,0.7h1.5v-0.7C60.8,14.3,60.6,14.2,60.5,14.2z"/>
</svg>
